<svg xmlns="http://www.w3.org/2000/svg" width="63.116" height="40.137" viewBox="0 0 63.116 40.137">
  <g id="Group_1047" data-name="Group 1047" transform="translate(-228.979 -274)">
    <path id="Path_1579" data-name="Path 1579" d="M-31.021,0V-9.953h3.411a4.165,4.165,0,0,1,2.57.677,2.384,2.384,0,0,1,.882,2.017,2.149,2.149,0,0,1-.369,1.23,2.376,2.376,0,0,1-1.08.848,2.2,2.2,0,0,1,1.248.824,2.4,2.4,0,0,1,.441,1.453,2.65,2.65,0,0,1-.9,2.153A3.909,3.909,0,0,1-27.392,0Zm1.729-4.491v3.11h1.921a1.859,1.859,0,0,0,1.271-.4,1.416,1.416,0,0,0,.458-1.121,1.42,1.42,0,0,0-1.586-1.586Zm0-1.271h1.7a1.961,1.961,0,0,0,1.261-.366,1.253,1.253,0,0,0,.455-1.036A1.27,1.27,0,0,0-26.3-8.23a2.123,2.123,0,0,0-1.309-.328h-1.682Zm6.631,2a4.361,4.361,0,0,1,.431-1.958,3.145,3.145,0,0,1,1.21-1.34,3.409,3.409,0,0,1,1.791-.468,3.231,3.231,0,0,1,2.43.964,3.791,3.791,0,0,1,1.008,2.557l.007.39a4.4,4.4,0,0,1-.42,1.955,3.108,3.108,0,0,1-1.2,1.333,3.434,3.434,0,0,1-1.808.472A3.209,3.209,0,0,1-21.721-.906a3.993,3.993,0,0,1-.94-2.779ZM-21-3.623a2.98,2.98,0,0,0,.472,1.788,1.533,1.533,0,0,0,1.313.646,1.517,1.517,0,0,0,1.309-.656,3.292,3.292,0,0,0,.468-1.921,2.942,2.942,0,0,0-.482-1.777A1.539,1.539,0,0,0-19.229-6.2a1.525,1.525,0,0,0-1.292.646A3.23,3.23,0,0,0-21-3.623Zm6.31-.144a4.361,4.361,0,0,1,.431-1.958,3.145,3.145,0,0,1,1.21-1.34,3.409,3.409,0,0,1,1.791-.468,3.231,3.231,0,0,1,2.43.964A3.791,3.791,0,0,1-7.82-4.013l.007.39a4.4,4.4,0,0,1-.42,1.955,3.108,3.108,0,0,1-1.2,1.333,3.434,3.434,0,0,1-1.808.472A3.209,3.209,0,0,1-13.75-.906a3.993,3.993,0,0,1-.94-2.779Zm1.661.144a2.98,2.98,0,0,0,.472,1.788,1.533,1.533,0,0,0,1.313.646,1.517,1.517,0,0,0,1.309-.656,3.292,3.292,0,0,0,.468-1.921A2.942,2.942,0,0,0-9.95-5.544,1.539,1.539,0,0,0-11.259-6.2a1.525,1.525,0,0,0-1.292.646A3.23,3.23,0,0,0-13.029-3.623Zm9.023.451-.738.759V0H-6.405V-10.5h1.661v6.057l.52-.649,2.044-2.3h2L-2.933-4.313.109,0H-1.812ZM2.461-7.4l.048.772a2.662,2.662,0,0,1,2.133-.909A2.045,2.045,0,0,1,6.672-6.4a2.623,2.623,0,0,1,2.27-1.135,2.306,2.306,0,0,1,1.822.677,2.98,2.98,0,0,1,.612,2V0H9.714V-4.812a1.471,1.471,0,0,0-.308-1.032,1.347,1.347,0,0,0-1.019-.328,1.383,1.383,0,0,0-.926.3,1.6,1.6,0,0,0-.5.8L6.966,0H5.3V-4.867A1.185,1.185,0,0,0,3.972-6.173a1.462,1.462,0,0,0-1.415.813V0H.9V-7.4ZM17.5,0a2.564,2.564,0,0,1-.191-.69,2.586,2.586,0,0,1-1.941.827A2.61,2.61,0,0,1,13.549-.5a2.034,2.034,0,0,1-.7-1.572,2.1,2.1,0,0,1,.878-1.815,4.257,4.257,0,0,1,2.512-.632h1.019V-5a1.3,1.3,0,0,0-.321-.919,1.274,1.274,0,0,0-.978-.345,1.463,1.463,0,0,0-.93.284.878.878,0,0,0-.362.721H13a1.844,1.844,0,0,1,.4-1.138,2.687,2.687,0,0,1,1.1-.831,3.854,3.854,0,0,1,1.548-.3,3.1,3.1,0,0,1,2.071.653,2.328,2.328,0,0,1,.793,1.835v3.336A3.781,3.781,0,0,0,19.2-.116V0ZM15.675-1.2a1.89,1.89,0,0,0,.926-.239,1.6,1.6,0,0,0,.653-.643V-3.473h-.9a2.449,2.449,0,0,0-1.388.321,1.041,1.041,0,0,0-.465.909.971.971,0,0,0,.318.762A1.231,1.231,0,0,0,15.675-1.2Zm8.853-4.683a4.111,4.111,0,0,0-.677-.055,1.524,1.524,0,0,0-1.538.875V0H20.651V-7.4h1.586l.041.827a1.872,1.872,0,0,1,1.668-.964,1.555,1.555,0,0,1,.588.1Zm3.452,2.707-.738.759V0H25.58V-10.5h1.661v6.057l.52-.649L29.8-7.4h2L29.053-4.313,32.095,0H30.174Z" transform="translate(260 314)" fill="#a29187"/>
    <g id="Group_11" data-name="Group 11" transform="translate(-941.44 -215.345)">
      <path id="Path_835" data-name="Path 835" d="M1147.6,598.618l2.766.573v5.4c-.271-.24-.493-.435-.713-.632a.784.784,0,0,0-1.25,0l-.7.622Z" transform="translate(49.62 -108.32)" fill="#a29187"/>
      <g id="Group_225" data-name="Group 225" transform="translate(1189.355 489.345)">
        <path id="Path_836" data-name="Path 836" d="M1161.511,603.921q0-1.926,0-3.852c0-.425-.159-.586-.577-.587-.313,0-.627,0-.94,0-.473,0-.473,0-.489-.483a.468.468,0,0,0-.385-.518,12.547,12.547,0,0,0-4.839-.281,7.66,7.66,0,0,0-4.4,2.05c-.117.115-.17.053-.251-.026a7.021,7.021,0,0,0-3.089-1.753,11.836,11.836,0,0,0-5.734-.078c-.748.16-.75.166-.782.938-.005.122-.042.153-.159.152-.4-.006-.811.011-1.215-.007a.592.592,0,0,0-.615.331V614.57c.187.337.384.425.681.285a14.984,14.984,0,0,1,5.03-1.354,17.052,17.052,0,0,1,5.283.31,2.225,2.225,0,0,0,1.013.109c.474-.114.952-.214,1.434-.292a16.761,16.761,0,0,1,4.726-.1,13.953,13.953,0,0,1,4.636,1.331.443.443,0,0,0,.589-.137.655.655,0,0,0,.085-.417Zm-14.773,8.637a18.035,18.035,0,0,0-2.655-.015,16.742,16.742,0,0,0-4.824,1.078c-.1.037-.2.073-.312.116v-.253q0-6.417,0-12.833c0-.2.031-.285.253-.263a4.284,4.284,0,0,0,.664,0c.144-.008.179.043.177.181-.008.535,0,1.069,0,1.6q0,4.732,0,9.464c0,.492.234.609.475.62a2.238,2.238,0,0,0,.386-.045,15.163,15.163,0,0,1,5.373.119c.223.05.44.122.66.183l.191.043A.534.534,0,0,1,1146.738,612.558Zm2.567.01a8.268,8.268,0,0,0-1.945-.888,13.758,13.758,0,0,0-4.8-.527c-.488.024-.975.071-1.462.117-.14.013-.179-.018-.179-.165q.007-5.822,0-11.645c0-.085-.008-.149.115-.174a10.5,10.5,0,0,1,5.756.259,6.01,6.01,0,0,1,2.4,1.585.324.324,0,0,1,.11.236C1149.3,605.089,1149.3,608.81,1149.3,612.568Zm1.918-.527a8.936,8.936,0,0,0-1,.526v-5.082q0-3.014,0-6.027a.493.493,0,0,1,.154-.38,6.762,6.762,0,0,1,3.794-1.912,11.566,11.566,0,0,1,4.233.1c.156.03.206.084.205.249q-.008,5.774,0,11.55c0,.2-.078.22-.239.2a17.619,17.619,0,0,0-2.926-.126A11.581,11.581,0,0,0,1151.222,612.041Zm9.388-11.508a.5.5,0,0,0,0,.069l-.016,12.972v.153c-.457-.157-.9-.317-1.344-.46a16.751,16.751,0,0,0-5.872-.75c-.206.008-.411.027-.617.041a.642.642,0,0,1-.387.011l.241-.056a11.835,11.835,0,0,1,3.638-.478,22.912,22.912,0,0,1,2.625.2c.47.059.649-.113.649-.584q0-5.5,0-11c0-.209.049-.276.259-.258a6.1,6.1,0,0,0,.687,0C1160.581,600.388,1160.628,600.422,1160.611,600.533Z" transform="translate(-1138.034 -598.078)" fill="#a29187"/>
        <path id="Path_837" data-name="Path 837" d="M1157.3,617.053l-.146-.045C1157.179,617.114,1157.25,617.057,1157.3,617.053Z" transform="translate(-1142.575 -602.573)" fill="#a29187"/>
        <path id="Path_838" data-name="Path 838" d="M1149.634,617.012c-.053.053-.128.009-.186.042C1149.514,617.06,1149.593,617.12,1149.634,617.012Z" transform="translate(-1140.744 -602.574)" fill="#a29187"/>
      </g>
    </g>
  </g>
</svg>
