<svg xmlns="http://www.w3.org/2000/svg" width="34.672" height="41.137" viewBox="0 0 34.672 41.137">
  <g id="Group_1050" data-name="Group 1050" transform="translate(-146.756 -281)">
    <path id="Path_1582" data-name="Path 1582" d="M-15.514-3.691V0h-1.729V-9.953h3.808a3.85,3.85,0,0,1,2.649.869,2.922,2.922,0,0,1,.981,2.3,2.825,2.825,0,0,1-.96,2.279,4.037,4.037,0,0,1-2.69.814Zm0-1.395h2.078a2.047,2.047,0,0,0,1.408-.434,1.6,1.6,0,0,0,.485-1.254,1.721,1.721,0,0,0-.492-1.289,1.9,1.9,0,0,0-1.354-.5h-2.126ZM-4.112,0A2.564,2.564,0,0,1-4.3-.69,2.586,2.586,0,0,1-6.245.137,2.61,2.61,0,0,1-8.063-.5a2.034,2.034,0,0,1-.7-1.572,2.1,2.1,0,0,1,.878-1.815,4.257,4.257,0,0,1,2.512-.632h1.019V-5a1.3,1.3,0,0,0-.321-.919,1.274,1.274,0,0,0-.978-.345,1.463,1.463,0,0,0-.93.284.878.878,0,0,0-.362.721H-8.61a1.844,1.844,0,0,1,.4-1.138,2.687,2.687,0,0,1,1.1-.831,3.854,3.854,0,0,1,1.548-.3A3.1,3.1,0,0,1-3.49-6.88,2.328,2.328,0,0,1-2.7-5.045v3.336a3.781,3.781,0,0,0,.28,1.593V0ZM-5.937-1.2a1.89,1.89,0,0,0,.926-.239,1.6,1.6,0,0,0,.653-.643V-3.473h-.9a2.449,2.449,0,0,0-1.388.321,1.041,1.041,0,0,0-.465.909.971.971,0,0,0,.318.762A1.231,1.231,0,0,0-5.937-1.2ZM2.916-5.879a4.111,4.111,0,0,0-.677-.055A1.524,1.524,0,0,0,.7-5.059V0H-.96V-7.4H.625l.041.827a1.872,1.872,0,0,1,1.668-.964,1.555,1.555,0,0,1,.588.1ZM8.179,0a2.564,2.564,0,0,1-.191-.69A2.586,2.586,0,0,1,6.046.137,2.61,2.61,0,0,1,4.228-.5a2.034,2.034,0,0,1-.7-1.572A2.1,2.1,0,0,1,4.4-3.886a4.257,4.257,0,0,1,2.512-.632H7.933V-5a1.3,1.3,0,0,0-.321-.919,1.274,1.274,0,0,0-.978-.345,1.463,1.463,0,0,0-.93.284.878.878,0,0,0-.362.721H3.681a1.844,1.844,0,0,1,.4-1.138,2.687,2.687,0,0,1,1.1-.831,3.854,3.854,0,0,1,1.548-.3A3.1,3.1,0,0,1,8.8-6.88a2.328,2.328,0,0,1,.793,1.835v3.336a3.781,3.781,0,0,0,.28,1.593V0ZM6.354-1.2a1.89,1.89,0,0,0,.926-.239,1.6,1.6,0,0,0,.653-.643V-3.473h-.9a2.449,2.449,0,0,0-1.388.321,1.041,1.041,0,0,0-.465.909A.971.971,0,0,0,5.5-1.48,1.231,1.231,0,0,0,6.354-1.2ZM12.971-6.59a2.6,2.6,0,0,1,2.058-.943q2.365,0,2.4,2.7V0H15.767V-4.771a1.461,1.461,0,0,0-.332-1.083,1.355,1.355,0,0,0-.974-.318,1.6,1.6,0,0,0-1.49.889V0H11.31V-10.5h1.661Z" transform="translate(164 322)" fill="#935d54"/>
    <g id="Group_12" data-name="Group 12" transform="translate(-944.273 -315.263)">
      <path id="Rectangle_100" data-name="Rectangle 100" d="M.654,0H4A0,0,0,0,1,4,0V2.525a0,0,0,0,1,0,0H.654A.654.654,0,0,1,0,1.871V.654A.654.654,0,0,1,.654,0Z" transform="translate(1098.149 596.263)" fill="#935d54"/>
      <path id="Rectangle_101" data-name="Rectangle 101" d="M.654,0H4A0,0,0,0,1,4,0V2.525a0,0,0,0,1,0,0H.654A.654.654,0,0,1,0,1.871V.654A.654.654,0,0,1,.654,0Z" transform="translate(1098.149 602.691)" fill="#935d54"/>
      <path id="Rectangle_102" data-name="Rectangle 102" d="M.654,0H4A0,0,0,0,1,4,0V2.525a0,0,0,0,1,0,0H.654A.654.654,0,0,1,0,1.871V.654A.654.654,0,0,1,.654,0Z" transform="translate(1098.149 608.823)" fill="#935d54"/>
      <path id="Path_839" data-name="Path 839" d="M1106.637,598.494c.075.006.151,0,.226,0h13.3c.076,0,.151,0,.226,0a.677.677,0,0,0,.081-1.342,1.6,1.6,0,0,0-.293-.012h-13.322c-.075,0-.151,0-.225,0a.677.677,0,0,0,.009,1.35Z" transform="translate(-2.63 -0.294)" fill="#935d54"/>
      <path id="Path_840" data-name="Path 840" d="M1120.469,608.381a1.651,1.651,0,0,0-.293-.012h-13.322c-.075,0-.151,0-.226,0a.677.677,0,0,0,.009,1.351c.074.006.15,0,.226,0h13.3c.075,0,.151,0,.226,0a.677.677,0,0,0,.081-1.342Z" transform="translate(-2.63 -5.103)" fill="#935d54"/>
      <path id="Path_841" data-name="Path 841" d="M1120.486,619.614a1.425,1.425,0,0,0-.292-.017h-13.367c-.068,0-.136,0-.2,0a.676.676,0,0,0-.564.946.709.709,0,0,0,.716.41q3.37-.005,6.74,0h6.649c.076,0,.151,0,.226,0a.676.676,0,0,0,.095-1.337Z" transform="translate(-2.629 -10.19)" fill="#935d54"/>
      <path id="Path_842" data-name="Path 842" d="M1110.1,601.222q-1.673,0-3.346,0a.693.693,0,0,0-.7.432.678.678,0,0,0,.668.925c.972.005,1.944,0,2.917,0,1.266,0,2.532,0,3.8,0a.692.692,0,0,0,.706-.424.676.676,0,0,0-.674-.934C1112.341,601.219,1111.218,601.222,1110.1,601.222Z" transform="translate(-2.629 -2.09)" fill="#935d54"/>
      <path id="Path_843" data-name="Path 843" d="M1106.718,613.807c.972.005,1.944,0,2.917,0,1.266,0,2.532,0,3.8,0a.693.693,0,0,0,.706-.424.676.676,0,0,0-.674-.934c-1.123,0-2.245,0-3.369,0s-2.23,0-3.346,0a.692.692,0,0,0-.7.432A.678.678,0,0,0,1106.718,613.807Z" transform="translate(-2.629 -6.824)" fill="#935d54"/>
      <path id="Path_844" data-name="Path 844" d="M1113.656,623.7a1.424,1.424,0,0,0-.292-.017q-2.86,0-5.72,0c-.317,0-.633,0-.949,0a.678.678,0,1,0,.033,1.355c1.115,0,2.231,0,3.346,0h.2c1.07,0,2.14,0,3.21,0a.677.677,0,0,0,.169-1.338Z" transform="translate(-2.629 -11.557)" fill="#935d54"/>
    </g>
  </g>
</svg>
