<svg xmlns="http://www.w3.org/2000/svg" width="42.096" height="42.137" viewBox="0 0 42.096 42.137">
  <g id="Group_1046" data-name="Group 1046" transform="translate(-332.792 -272)">
    <path id="Path_1578" data-name="Path 1578" d="M-15.5-2.563a1.2,1.2,0,0,0-.461-1.012,5.552,5.552,0,0,0-1.665-.718A8.038,8.038,0,0,1-19.541-5.1,2.554,2.554,0,0,1-20.9-7.328a2.425,2.425,0,0,1,.981-1.982,3.97,3.97,0,0,1,2.546-.779,4.3,4.3,0,0,1,1.853.383,3.041,3.041,0,0,1,1.278,1.09,2.8,2.8,0,0,1,.465,1.569H-15.5a1.56,1.56,0,0,0-.489-1.22,2.017,2.017,0,0,0-1.4-.441,2.107,2.107,0,0,0-1.316.362,1.206,1.206,0,0,0-.468,1.012,1.091,1.091,0,0,0,.506.913A5.828,5.828,0,0,0-17-5.711a7.672,7.672,0,0,1,1.866.786A2.968,2.968,0,0,1-14.1-3.914a2.635,2.635,0,0,1,.328,1.336A2.369,2.369,0,0,1-14.725-.6a4.136,4.136,0,0,1-2.587.735,4.862,4.862,0,0,1-1.986-.4,3.336,3.336,0,0,1-1.408-1.1,2.751,2.751,0,0,1-.5-1.641h1.729A1.61,1.61,0,0,0-18.918-1.7a2.455,2.455,0,0,0,1.606.465A2.133,2.133,0,0,0-15.955-1.6,1.18,1.18,0,0,0-15.5-2.563Zm6.344,2.7a3.437,3.437,0,0,1-2.56-.995A3.608,3.608,0,0,1-12.7-3.507v-.205a4.438,4.438,0,0,1,.427-1.979,3.252,3.252,0,0,1,1.2-1.357,3.172,3.172,0,0,1,1.723-.485,2.9,2.9,0,0,1,2.334.964A4.076,4.076,0,0,1-6.19-3.842v.67h-4.833a2.221,2.221,0,0,0,.612,1.449,1.837,1.837,0,0,0,1.35.533A2.249,2.249,0,0,0-7.2-2.112l.9.854A2.99,2.99,0,0,1-7.492-.229,3.713,3.713,0,0,1-9.157.137Zm-.2-6.337a1.4,1.4,0,0,0-1.1.479A2.48,2.48,0,0,0-11-4.389h3.165v-.123a2.019,2.019,0,0,0-.444-1.261A1.388,1.388,0,0,0-9.355-6.2ZM-.482,0A2.564,2.564,0,0,1-.673-.69,2.586,2.586,0,0,1-2.615.137,2.61,2.61,0,0,1-4.433-.5a2.034,2.034,0,0,1-.7-1.572,2.1,2.1,0,0,1,.878-1.815,4.257,4.257,0,0,1,2.512-.632H-.728V-5a1.3,1.3,0,0,0-.321-.919,1.274,1.274,0,0,0-.978-.345,1.463,1.463,0,0,0-.93.284.878.878,0,0,0-.362.721H-4.98a1.844,1.844,0,0,1,.4-1.138,2.687,2.687,0,0,1,1.1-.831,3.854,3.854,0,0,1,1.548-.3A3.1,3.1,0,0,1,.14-6.88,2.328,2.328,0,0,1,.933-5.045v3.336a3.781,3.781,0,0,0,.28,1.593V0ZM-2.307-1.2a1.89,1.89,0,0,0,.926-.239,1.6,1.6,0,0,0,.653-.643V-3.473h-.9a2.449,2.449,0,0,0-1.388.321,1.041,1.041,0,0,0-.465.909.971.971,0,0,0,.318.762A1.231,1.231,0,0,0-2.307-1.2ZM6.545-5.879a4.111,4.111,0,0,0-.677-.055,1.524,1.524,0,0,0-1.538.875V0H2.669V-7.4H4.255l.041.827a1.872,1.872,0,0,1,1.668-.964,1.555,1.555,0,0,1,.588.1ZM10.5-1.189a1.5,1.5,0,0,0,1.032-.362,1.238,1.238,0,0,0,.438-.9h1.565a2.44,2.44,0,0,1-.431,1.289,2.825,2.825,0,0,1-1.094.947,3.259,3.259,0,0,1-1.49.349,3.154,3.154,0,0,1-2.461-1,3.986,3.986,0,0,1-.909-2.775v-.171a3.919,3.919,0,0,1,.9-2.7,3.125,3.125,0,0,1,2.461-1.015,3.039,3.039,0,0,1,2.15.769,2.755,2.755,0,0,1,.872,2.02H11.973a1.521,1.521,0,0,0-.434-1.046A1.4,1.4,0,0,0,10.5-6.2a1.462,1.462,0,0,0-1.244.584,2.982,2.982,0,0,0-.444,1.774v.267a3.032,3.032,0,0,0,.434,1.794A1.461,1.461,0,0,0,10.5-1.189Zm5.927-5.4a2.6,2.6,0,0,1,2.058-.943q2.365,0,2.4,2.7V0H19.226V-4.771a1.461,1.461,0,0,0-.332-1.083,1.355,1.355,0,0,0-.974-.318,1.6,1.6,0,0,0-1.49.889V0H14.769V-10.5H16.43Z" transform="translate(354 314)" fill="#a29187"/>
    <g id="Group_10" data-name="Group 10" transform="translate(-1084.943 -108.334)">
      <path id="Path_829" data-name="Path 829" d="M1118.357,576.961l1.468-1.469-2-2-1.468,1.469Z" transform="translate(325.965 -180.836)" fill="#a29187"/>
      <path id="Path_830" data-name="Path 830" d="M1118.668,574.335a7.866,7.866,0,0,1-1.468,1.468l-.843-.843,1.468-1.469Z" transform="translate(325.965 -180.836)" fill="#a29187"/>
      <path id="Path_831" data-name="Path 831" d="M1105.768,555.067q.4,0,.787.039a7.838,7.838,0,0,0,0,15.6,7.837,7.837,0,1,1-.787-15.635Z" transform="translate(332.069 -174.733)" fill="#a29187"/>
      <path id="Path_832" data-name="Path 832" d="M1105.768,555.067a7.837,7.837,0,1,1-7.837,7.837A7.837,7.837,0,0,1,1105.768,555.067Zm0,13.373a5.536,5.536,0,1,0-5.536-5.536A5.536,5.536,0,0,0,1105.768,568.44Z" transform="translate(332.069 -174.733)" fill="#a29187"/>
      <path id="Path_833" data-name="Path 833" d="M1124.087,581.222a2.049,2.049,0,0,0-.246-3.108l-3.758-2.726a.609.609,0,0,0-.789.063l-.978.978a.608.608,0,0,0-.062.788l2.725,3.758a2.049,2.049,0,0,0,3.108.246Z" transform="translate(325.375 -181.426)" fill="#a29187"/>
      <path id="Path_834" data-name="Path 834" d="M1118.316,576.43l.978-.978a.61.61,0,0,1,.789-.063l.5.364-.677.677a.609.609,0,0,0-.062.788l2.726,3.758a2.034,2.034,0,0,0,.864.687,2.051,2.051,0,0,1-2.455-.687l-2.725-3.758a.608.608,0,0,1,.062-.788Z" transform="translate(325.375 -181.426)" fill="#a29187"/>
    </g>
  </g>
</svg>
