<svg xmlns="http://www.w3.org/2000/svg" width="22.348" height="21.657" viewBox="0 0 22.348 21.657">
  <path id="Path_1562" data-name="Path 1562" d="M621.661,118.7l-2.852,2.634a1.961,1.961,0,0,0-.61,1.719l.553,3.843a1.96,1.96,0,0,1-2.9,1.988l-3.386-1.9a1.96,1.96,0,0,0-1.823-.049l-3.484,1.714a1.96,1.96,0,0,1-2.787-2.142l.759-3.807a1.96,1.96,0,0,0-.517-1.749l-2.706-2.783a1.96,1.96,0,0,1,1.176-3.312l3.855-.455a1.959,1.959,0,0,0,1.5-1.032l1.811-3.434a1.96,1.96,0,0,1,3.513.095l1.624,3.526a1.958,1.958,0,0,0,1.446,1.112l3.825.661A1.96,1.96,0,0,1,621.661,118.7Z" transform="matrix(1, -0.017, 0.017, 1, -602.631, -97.504)" fill="none" stroke="#935d54" stroke-width="1"/>
</svg>
