<svg xmlns="http://www.w3.org/2000/svg" width="34.959" height="40.137" viewBox="0 0 34.959 40.137">
  <g id="Group_1049" data-name="Group 1049" transform="translate(-52.36 -274)">
    <path id="Path_1581" data-name="Path 1581" d="M-11.932-2.563a1.2,1.2,0,0,0-.461-1.012,5.552,5.552,0,0,0-1.665-.718A8.038,8.038,0,0,1-15.972-5.1a2.554,2.554,0,0,1-1.36-2.229,2.425,2.425,0,0,1,.981-1.982,3.97,3.97,0,0,1,2.546-.779,4.3,4.3,0,0,1,1.853.383,3.041,3.041,0,0,1,1.278,1.09,2.8,2.8,0,0,1,.465,1.569h-1.723a1.56,1.56,0,0,0-.489-1.22,2.017,2.017,0,0,0-1.4-.441,2.107,2.107,0,0,0-1.316.362A1.206,1.206,0,0,0-15.6-7.335a1.091,1.091,0,0,0,.506.913,5.828,5.828,0,0,0,1.668.711,7.672,7.672,0,0,1,1.866.786,2.968,2.968,0,0,1,1.032,1.012A2.635,2.635,0,0,1-10.2-2.577,2.369,2.369,0,0,1-11.156-.6a4.136,4.136,0,0,1-2.587.735,4.862,4.862,0,0,1-1.986-.4,3.336,3.336,0,0,1-1.408-1.1,2.751,2.751,0,0,1-.5-1.641h1.729A1.61,1.61,0,0,0-15.35-1.7a2.455,2.455,0,0,0,1.606.465A2.133,2.133,0,0,0-12.387-1.6,1.18,1.18,0,0,0-11.932-2.563ZM-4.365-.725A2.576,2.576,0,0,1-6.443.137a2.3,2.3,0,0,1-1.822-.7A3,3,0,0,1-8.883-2.6V-7.4h1.661v4.771q0,1.408,1.169,1.408a1.642,1.642,0,0,0,1.634-.868V-7.4h1.661V0H-4.324ZM2.806-5.879a4.111,4.111,0,0,0-.677-.055,1.524,1.524,0,0,0-1.538.875V0H-1.07V-7.4H.516l.041.827a1.872,1.872,0,0,1,1.668-.964,1.555,1.555,0,0,1,.588.1ZM8.07,0a2.564,2.564,0,0,1-.191-.69A2.586,2.586,0,0,1,5.937.137,2.61,2.61,0,0,1,4.119-.5a2.034,2.034,0,0,1-.7-1.572,2.1,2.1,0,0,1,.878-1.815,4.257,4.257,0,0,1,2.512-.632H7.824V-5A1.3,1.3,0,0,0,7.5-5.923a1.274,1.274,0,0,0-.978-.345,1.463,1.463,0,0,0-.93.284.878.878,0,0,0-.362.721H3.572a1.844,1.844,0,0,1,.4-1.138,2.687,2.687,0,0,1,1.1-.831,3.854,3.854,0,0,1,1.548-.3,3.1,3.1,0,0,1,2.071.653,2.328,2.328,0,0,1,.793,1.835v3.336a3.781,3.781,0,0,0,.28,1.593V0ZM6.245-1.2a1.89,1.89,0,0,0,.926-.239,1.6,1.6,0,0,0,.653-.643V-3.473h-.9a2.449,2.449,0,0,0-1.388.321,1.041,1.041,0,0,0-.465.909.971.971,0,0,0,.318.762A1.231,1.231,0,0,0,6.245-1.2ZM12.862-6.59a2.6,2.6,0,0,1,2.058-.943q2.365,0,2.4,2.7V0H15.658V-4.771a1.461,1.461,0,0,0-.332-1.083,1.355,1.355,0,0,0-.974-.318,1.6,1.6,0,0,0-1.49.889V0H11.2V-10.5h1.661Z" transform="translate(70 314)" fill="#935d54"/>
    <g id="Group_9" data-name="Group 9" transform="translate(-1078.161 -283.844)">
      <path id="Path_845" data-name="Path 845" d="M1139.708,568.282c.124-.123.129-.184.014-.322a6.024,6.024,0,0,1-1.389-4.8,6.146,6.146,0,0,1,12.234.788,6.712,6.712,0,0,1-.08,1.071,6.154,6.154,0,0,1-8.807,4.487.256.256,0,0,0-.359.06q-2.116,2.129-4.244,4.248a2.444,2.444,0,0,1-.265.242,1.017,1.017,0,0,1-1.6-.636,1.061,1.061,0,0,1,.352-.993Q1137.634,570.352,1139.708,568.282Zm4.723-.179a4.1,4.1,0,1,0-4.115-4.1A4.118,4.118,0,0,0,1144.43,568.1Z" transform="translate(0 0)" fill="#935d54"/>
      <g id="Group_228" data-name="Group 228" transform="translate(1149.785 558.553)">
        <path id="Path_846" data-name="Path 846" d="M1157.01,575.3c1.339,0,2.677,0,4.017,0s2.652,0,3.978,0a1.519,1.519,0,1,1,0,3q-4,.007-7.994,0a1.517,1.517,0,1,1,0-2.995Z" transform="translate(-1155.251 -563.308)" fill="#935d54"/>
        <path id="Path_847" data-name="Path 847" d="M1165.82,570.052c-1.119.017-2.239,0-3.357,0v0c-1.068,0-2.135,0-3.2,0a1.914,1.914,0,0,1-.924-.2,1.447,1.447,0,0,1-.761-1.686,1.6,1.6,0,0,1,1.6-1.092c2.187-.008,4.374,0,6.561,0a1.9,1.9,0,0,1,.493.062,1.479,1.479,0,0,1,1.152,1.649A1.554,1.554,0,0,1,1165.82,570.052Z" transform="translate(-1155.869 -561.069)" fill="#935d54"/>
        <path id="Path_848" data-name="Path 848" d="M1166.937,561.831c-.528,0-1.056,0-1.583,0s-1.082,0-1.622,0a1.591,1.591,0,0,1-1.684-1.422,1.527,1.527,0,0,1,1.562-1.56c1.157-.04,2.319-.042,3.475,0a1.508,1.508,0,0,1,1.542,1.57A1.578,1.578,0,0,1,1166.937,561.831Z" transform="translate(-1157.103 -558.819)" fill="#935d54"/>
      </g>
    </g>
  </g>
</svg>
