<svg xmlns="http://www.w3.org/2000/svg" width="223.16" height="26.48" viewBox="0 0 223.16 26.48">
  <path id="Path_1575" data-name="Path 1575" d="M-92.82-6.64A11.475,11.475,0,0,1-94.9-2.68c-.92,1.04-2.28,1.24-4.4,1.24a8.325,8.325,0,0,1-3.68-.48c-.76-.4-.96-1.16-.96-3.28V-20.96c0-3.44.4-3.64,3.52-3.88V-26h-10.76v1.16c3.24.28,3.52.48,3.52,3.88V-5.08c0,3.4-.36,3.68-3.72,3.92V0h18.36c.36-1.2,1.2-5.04,1.44-6.36ZM-75.3-4.36A6.656,6.656,0,0,1-79.86-2.4c-2.8,0-5.8-2.24-5.88-7.48,4.64-.16,9.64-.56,10.28-.64.8-.16.96-.52.96-1.32A6.224,6.224,0,0,0-80.58-18a8.272,8.272,0,0,0-5.92,2.92,10.284,10.284,0,0,0-2.68,7.04c0,4.52,2.88,8.52,7.88,8.52,1.32,0,4.12-.72,6.64-3.96Zm-6.2-12.16c2.08,0,3.36,1.96,3.32,4.04,0,.6-.24.8-.92.8-2.2.08-4.28.12-6.4.12C-84.98-14.8-83.26-16.52-81.5-16.52ZM-55.74-1.6l-.4-1.08a3.517,3.517,0,0,1-1.44.4c-.68,0-1.36-.56-1.36-2.36v-7.28c0-2.16-.4-3.8-1.88-5A5.364,5.364,0,0,0-64.18-18a18.191,18.191,0,0,0-6.12,2.8c-.8.6-1.32,1.04-1.32,1.68a2.039,2.039,0,0,0,1.88,1.76,1.2,1.2,0,0,0,1.28-1,6.758,6.758,0,0,1,1.16-2.68,2.177,2.177,0,0,1,1.72-.76c1.92,0,3.2,1.6,3.2,4.4v.8c-.88.72-3.84,1.8-6.24,2.64-2.16.72-3.2,1.92-3.2,3.92A4.939,4.939,0,0,0-66.9.48c1.12,0,3.04-1.44,4.64-2.52A3.536,3.536,0,0,0-61.3-.32a3.092,3.092,0,0,0,1.96.8Zm-6.64-1.72A4.846,4.846,0,0,1-65.3-2.04a2.856,2.856,0,0,1-2.76-3.04c0-1.48.84-2.2,2.32-2.92.88-.4,2.52-1.16,3.36-1.6Zm14.04-10.44v-4.32a27.133,27.133,0,0,1-5.92,1.6v.92c2.2.36,2.4.48,2.4,3.04v8.36c0,2.6-.28,2.84-2.72,3.08V0h9.52V-1.08c-3.08-.24-3.28-.48-3.28-3.08v-7.36c.84-2.12,2.04-3.16,3-3.16a2.389,2.389,0,0,1,1.76.8.924.924,0,0,0,1.08.12,2.421,2.421,0,0,0,1.4-2.16A2.283,2.283,0,0,0-43.5-18c-1.84,0-3.52,2.12-4.76,4.24ZM-19.46,0V-1.08c-2.28-.28-2.52-.4-2.52-3.08v-7.72c0-3.88-1.96-6.12-5.16-6.12a5.814,5.814,0,0,0-3.28,1.2c-1,.64-1.84,1.24-2.64,1.84v-3.16a29.828,29.828,0,0,1-5.88,1.64v.96c2.12.4,2.36.52,2.36,3.04V-4.2c0,2.64-.2,2.84-2.84,3.12V0h8.84V-1.08c-2.24-.24-2.48-.4-2.48-3.08V-13.6a6.8,6.8,0,0,1,4.12-1.92c2.44,0,3.48,1.64,3.48,4.44V-4.4c0,2.8-.28,3.08-2.52,3.32V0ZM4.8-8.54H.2v.58c1.4.18,1.6.44,1.2,1.36A13.432,13.432,0,0,1,.24-4.4c-1.3-1.32-2.66-2.5-3.3-3.06a18.124,18.124,0,0,0,1.6-1.2A2.248,2.248,0,0,0-.62-10.4a2.865,2.865,0,0,0-3.04-2.78A3.292,3.292,0,0,0-7-9.98,3.765,3.765,0,0,0-5.58-7.2c-1.7,1.22-2.96,2.02-2.96,3.84a3.78,3.78,0,0,0,4,3.64c1.4,0,2.72-.72,4.12-2.6.66.7,1.46,1.6,1.72,1.88a5.063,5.063,0,0,0,2.6.8L4.04.14A22.954,22.954,0,0,0,.74-3.88c.7-1.04,1.2-1.84,1.74-2.62A2.578,2.578,0,0,1,4.8-7.96Zm-8.66-3.94A1.867,1.867,0,0,1-2.2-10.4,3.058,3.058,0,0,1-3.6-7.86C-4.84-8.8-5.44-9.5-5.44-10.52-5.44-11.68-4.76-12.48-3.86-12.48Zm-.08,11.3A2.7,2.7,0,0,1-6.7-4,3.378,3.378,0,0,1-5.06-6.74,39.214,39.214,0,0,1-.9-2.88,4,4,0,0,1-3.94-1.18ZM39.1-.76A5.794,5.794,0,0,1,36.3-2.6a34.074,34.074,0,0,1-3.2-4.2c-1.2-1.8-2.84-4.48-3.52-5.76,2.92-1.28,5.08-3.36,5.08-6.8a5.879,5.879,0,0,0-2.68-5.24C30.46-25.64,28.5-26,25.46-26H15.3v1.16c3.08.28,3.44.48,3.44,3.84V-5.04c0,3.36-.36,3.64-3.6,3.88V0h10.8V-1.16c-3.16-.24-3.52-.52-3.52-3.88v-6.28h1.16c1.92,0,2.6.48,3.32,1.64,1.16,1.96,2.56,4.4,3.88,6.28,1.8,2.6,3.4,3.52,6.8,3.68.48.04.92.04,1.36.04ZM22.42-12.68v-9.84c0-1.04.12-1.48.4-1.72a3.755,3.755,0,0,1,2.12-.4c2.88,0,5.64,1.6,5.64,5.92a5.868,5.868,0,0,1-2.12,4.92,6.515,6.515,0,0,1-4.28,1.12ZM54.1-4.36A6.656,6.656,0,0,1,49.54-2.4c-2.8,0-5.8-2.24-5.88-7.48,4.64-.16,9.64-.56,10.28-.64.8-.16.96-.52.96-1.32A6.224,6.224,0,0,0,48.82-18a8.272,8.272,0,0,0-5.92,2.92,10.284,10.284,0,0,0-2.68,7.04C40.22-3.52,43.1.48,48.1.48c1.32,0,4.12-.72,6.64-3.96ZM47.9-16.52c2.08,0,3.36,1.96,3.32,4.04,0,.6-.24.8-.92.8-2.2.08-4.28.12-6.4.12C44.42-14.8,46.14-16.52,47.9-16.52Zm23.88,12C70.02-2.88,68.74-2.4,67.06-2.4c-2.16,0-5.96-1.84-5.96-7.36,0-4.2,2.2-6.28,4.64-6.28a5.92,5.92,0,0,1,4.04,1.72c.32.32.52.44.76.44a2.041,2.041,0,0,0,1.4-1.84,1.426,1.426,0,0,0-.68-1.24A5.739,5.739,0,0,0,67.74-18a10.7,10.7,0,0,0-6.16,2.32,9.565,9.565,0,0,0-4.04,7.76c0,4.32,3,8.4,8.16,8.4,2.36,0,5-1.76,6.8-4.12Zm6.76-16.8a2.177,2.177,0,0,0,2.16-2.16,2.162,2.162,0,0,0-2.12-2.24,2.2,2.2,0,0,0-2.2,2.24A2.2,2.2,0,0,0,78.54-21.32ZM83.34,0V-1.08c-2.56-.24-2.8-.48-2.8-3.2V-18.04a30.965,30.965,0,0,1-5.96,1.52v1c2.28.36,2.44.52,2.44,3.04v8.2c0,2.72-.28,2.96-2.76,3.2V0ZM95.62-1.44l-.36-1.08a5.517,5.517,0,0,1-2.36.6c-1,0-2.36-.56-2.36-3.76v-10.2h4.2a1.166,1.166,0,0,0,.24-1.64H90.54v-5.52l-.52-.12-2.96,2.72v2.92h-1.8l-1.08,1.2.16.44h2.72V-4.32c0,3.24,1.48,4.8,4.12,4.8a3.923,3.923,0,0,0,1.64-.52Zm15.36-2.92a6.656,6.656,0,0,1-4.56,1.96c-2.8,0-5.8-2.24-5.88-7.48,4.64-.16,9.64-.56,10.28-.64.8-.16.96-.52.96-1.32A6.224,6.224,0,0,0,105.7-18a8.272,8.272,0,0,0-5.92,2.92A10.284,10.284,0,0,0,97.1-8.04c0,4.52,2.88,8.52,7.88,8.52,1.32,0,4.12-.72,6.64-3.96Zm-6.2-12.16c2.08,0,3.36,1.96,3.32,4.04,0,.6-.24.8-.92.8-2.2.08-4.28.12-6.4.12C101.3-14.8,103.02-16.52,104.78-16.52Z" transform="translate(111.38 26)" fill="#935d54"/>
</svg>
