<svg xmlns="http://www.w3.org/2000/svg" width="204.88" height="65.927" viewBox="0 0 204.88 65.927">
  <path id="Path_1574" data-name="Path 1574" d="M-47.56,11.04A129.111,129.111,0,0,1-67.08-.16c9.44-2.96,18.16-12.08,18.16-26.24,0-16.16-12.08-26.8-25.52-26.8-17.12,0-27.2,13.28-27.2,28.08A26.524,26.524,0,0,0-93.32-5.76c5.04,4.88,12,6.64,16.48,6.88,9.76,6.8,15.92,9.76,18.4,10.4a39.924,39.924,0,0,0,10.24,1.2ZM-77.32-2c-9.36-1.92-16.16-11.76-16.16-25.28,0-15.28,8.24-22.96,17.12-22.96,10.96,0,19.28,9.44,19.28,26.08,0,12.8-6.24,20.08-12.64,21.92-.72-.48-1.44-1.04-2.16-1.52Zm73.6-1.92-2.24-.16C-9-4.24-9.64-4.8-9.64-8.8V-35.52A85.117,85.117,0,0,1-22.2-34.08v1.84c5.76.8,6.24,1.12,6.24,5.68V-7.92A12.432,12.432,0,0,1-24.6-4.08c-3.6,0-7.04-1.92-7.04-9.04V-23.84c0-5.44,0-9.2.24-11.68a95.126,95.126,0,0,1-11.44,1.44v1.84c4.56.88,4.88,1.2,4.88,5.6v15.68C-37.96-2.32-33.4.96-28.04.96a11.424,11.424,0,0,0,6.16-2c2.24-1.36,4.08-2.8,5.92-4.16V.48l.48.48A89.6,89.6,0,0,1-3.72-1.92ZM11.8-27.44v-8.72A45.237,45.237,0,0,1,.52-32.88v1.76c4.56.64,4.96.96,4.96,6.24V-8.32c0,5.28-.56,5.76-5.52,6.24V0h18.4V-2.08c-6.16-.48-6.56-.96-6.56-6.24V-22.96c1.76-4.48,4.32-6.88,6.4-6.88a4.3,4.3,0,0,1,3.36,1.68,1.855,1.855,0,0,0,2.16.16,4.494,4.494,0,0,0,2.56-3.92,4.451,4.451,0,0,0-4.64-4c-3.84,0-7.28,4.48-9.68,8.48ZM61.64-3.12l-.8-2.08a6.071,6.071,0,0,1-2.88.88c-1.36,0-2.8-1.2-2.8-4.8V-24c0-4.16-.8-7.44-3.6-9.76A10.432,10.432,0,0,0,45-35.92c-4.56.88-9.76,4-12,5.6-1.52,1.12-2.56,2-2.56,3.2a3.908,3.908,0,0,0,3.52,3.44,2.227,2.227,0,0,0,2.32-1.84c.64-2.48,1.36-4.24,2.4-5.28a4.512,4.512,0,0,1,3.6-1.6c4,0,6.72,3.28,6.72,9.04v1.44c-1.76,1.44-7.6,3.6-12.4,5.2-4.4,1.52-6.48,4-6.48,7.92A9.657,9.657,0,0,0,39.72.96c2.4,0,6.24-2.96,9.44-5.12a8.313,8.313,0,0,0,1.92,3.6A6.525,6.525,0,0,0,54.84.96ZM49-6.72a11.444,11.444,0,0,1-6.4,2.88A5.857,5.857,0,0,1,36.92-10c0-2.88,1.76-4.4,4.88-5.84,1.68-.8,5.52-2.48,7.2-3.36ZM103.24,0V-2.08c-4.64-.48-5.04-.8-5.04-6.24V-23.76c0-7.76-4-12.16-10.32-12.16a12.265,12.265,0,0,0-6.64,2.4c-2,1.36-3.76,2.56-5.36,3.76v-6.4a48.115,48.115,0,0,1-11.12,3.28v1.84c4.32.8,4.8,1.04,4.8,6.16V-8.32c0,5.28-.4,5.68-5.84,6.24V0H81.08V-2.08c-4.72-.48-5.2-.8-5.2-6.24v-18.8c2.4-2.08,5.52-4.08,8.72-4.08,5.36,0,7.28,3.6,7.28,9.12V-8.72c0,5.52-.56,6.16-5.28,6.64V0Z" transform="translate(101.64 53.2)" fill="#e9a598"/>
</svg>
