<svg xmlns="http://www.w3.org/2000/svg" width="31.512" height="31.511" viewBox="0 0 31.512 31.511">
  <g id="Group_1133" data-name="Group 1133" transform="translate(-73.449 -1472.918)">
    <path id="Path_3165" data-name="Path 3165" d="M163.328,1493.137c.181.2.615.051.938.063a6.367,6.367,0,0,1,6.2,5.5.522.522,0,0,0,.025-.168q0-8.684-.007-17.368a8.361,8.361,0,0,0-.42-2.6,6.9,6.9,0,0,0-5.272-5,3.355,3.355,0,0,1-.736-.146h-.775q0,9.4,0,18.8C163.283,1492.532,163.168,1492.958,163.328,1493.137Z" transform="translate(-82.184)" fill="none" stroke="#935d54" stroke-width="1"/>
    <path id="Path_3166" data-name="Path 3166" d="M104.455,1579.671q0-7.238,0-14.476c0-.209-.029-.3-.267-.282a10.557,10.557,0,0,1-1.191,0c-.258-.014-.342.044-.342.327.01,5.788,0,11.577.015,17.365,0,.274-.079.314-.326.313-2.3-.01-4.607,0-6.91-.007a7.545,7.545,0,0,0-1.565.161,7.243,7.243,0,0,0-2.97,1.432.841.841,0,0,1-.566.2c-.7-.016-1.41-.019-2.114,0a1.192,1.192,0,0,1-.814-.268,7.145,7.145,0,0,0-4.586-1.531c-2.263.021-4.527,0-6.791.012-.254,0-.3-.067-.3-.309q.013-5.123.006-10.246,0-4.483.006-8.965c0-.223-.051-.283-.274-.275-.506.019-1.012.006-1.519.006v21.57c2.988,0,5.977.006,8.965,0a5.2,5.2,0,0,1,3.892,1.619.52.52,0,0,0,.412.175q1.981-.01,3.961,0a.523.523,0,0,0,.415-.17,5.25,5.25,0,0,1,3.921-1.625c2.889.011,5.778,0,8.667.008.216,0,.28-.042.278-.271C104.449,1582.848,104.455,1581.26,104.455,1579.671Z" transform="translate(0 -82.564)" fill="none" stroke="#935d54" stroke-width="1"/>
    <path id="Path_3167" data-name="Path 3167" d="M276.051,1543.691q0,9.083,0,18.165v.365c.073-.043.108-.059.138-.082a8.762,8.762,0,0,1,5.232-1.667c1.717-.037,3.434.022,5.15.016.193,0,.269-.025.269-.248q-.01-9.648,0-19.3c0-.187-.038-.248-.239-.247-1.856.009-3.712-.013-5.568.013a10.274,10.274,0,0,0-4.828,1.306.334.334,0,0,0-.2.4A8.23,8.23,0,0,1,276.051,1543.691Zm5.941-1.253a.951.951,0,0,1,.228-.674,1.036,1.036,0,0,1,.8-.358q1.454,0,2.907,0h.014c.074,0,.08.009.04.064a.9.9,0,0,0-.167.547q.005,2.71,0,5.42a.691.691,0,0,1-.01.148.192.192,0,0,1-.179.17h-.1a.318.318,0,0,1-.134-.058c-.47-.316-.941-.629-1.412-.944-.075-.05-.075-.05-.148,0-.477.318-.956.632-1.431.951a.355.355,0,0,1-.13.052h-.111a.194.194,0,0,1-.164-.164.549.549,0,0,1-.011-.123Q281.991,1544.953,281.992,1542.438Z" transform="translate(-185.956 -61.921)" fill="none" stroke="#935d54" stroke-width="1"/>
    <path id="Path_3168" data-name="Path 3168" d="M118.766,1539.541c0,.226.057.274.276.272,1.509-.01,3.018.012,4.526-.011a9.732,9.732,0,0,1,4.189.719c0-.088,0-.137,0-.186a4.513,4.513,0,0,0-4.474-4.1c-.8-.007-1.608-.015-2.412.006-.267.007-.318-.067-.318-.323q.014-5.881.006-11.763c0-1.886,0-3.772,0-5.658,0-.2-.036-.274-.254-.264-.416.019-.834.018-1.25,0-.223-.009-.295.041-.294.284Q118.777,1529.029,118.766,1539.541Z" transform="translate(-41.248 -41.245)" fill="none" stroke="#935d54" stroke-width="1"/>
  </g>
</svg>
