<svg xmlns="http://www.w3.org/2000/svg" width="85" height="39" viewBox="0 0 85 39">
  <g id="Group_1188" data-name="Group 1188" transform="translate(-4231 -727)">
    <rect id="Rectangle_113" data-name="Rectangle 113" width="85" height="39" rx="8" transform="translate(4231 727)" fill="#e9a598"/>
    <path id="Path_3162" data-name="Path 3162" d="M13.32-4.963a5.754,5.754,0,0,1-1.832,3.83A6,6,0,0,1,7.391.215,5.511,5.511,0,0,1,2.949-1.772,8,8,0,0,1,1.278-7.09v-1.5a8.911,8.911,0,0,1,.779-3.835,5.817,5.817,0,0,1,2.208-2.541,6.147,6.147,0,0,1,3.309-.886,5.652,5.652,0,0,1,4,1.391,5.823,5.823,0,0,1,1.751,3.851H11.247a4.494,4.494,0,0,0-1.166-2.715,3.526,3.526,0,0,0-2.508-.84,3.69,3.69,0,0,0-3.1,1.462A6.712,6.712,0,0,0,3.352-8.546V-7.03A6.9,6.9,0,0,0,4.415-2.977,3.436,3.436,0,0,0,7.391-1.472a3.969,3.969,0,0,0,2.637-.779,4.322,4.322,0,0,0,1.219-2.712ZM23,0a4.175,4.175,0,0,1-.279-1.225A4.434,4.434,0,0,1,19.411.215a4.1,4.1,0,0,1-2.82-.972,3.145,3.145,0,0,1-1.1-2.465,3.286,3.286,0,0,1,1.38-2.82,6.508,6.508,0,0,1,3.883-1h1.934V-7.96a2.232,2.232,0,0,0-.623-1.66,2.5,2.5,0,0,0-1.837-.618,2.9,2.9,0,0,0-1.783.537,1.583,1.583,0,0,0-.72,1.3h-2a2.743,2.743,0,0,1,.618-1.681,4.216,4.216,0,0,1,1.676-1.284,5.638,5.638,0,0,1,2.326-.473,4.6,4.6,0,0,1,3.147,1,3.623,3.623,0,0,1,1.182,2.766v5.35a6.54,6.54,0,0,0,.408,2.546V0ZM19.7-1.515A3.493,3.493,0,0,0,21.474-2a2.924,2.924,0,0,0,1.214-1.257V-5.64H21.13q-3.652,0-3.652,2.138A1.809,1.809,0,0,0,18.1-2.041,2.4,2.4,0,0,0,19.7-1.515ZM29.67-11.623l.064,1.461a4.236,4.236,0,0,1,3.48-1.676q3.685,0,3.717,4.157V0H34.944V-7.691A2.676,2.676,0,0,0,34.37-9.55a2.3,2.3,0,0,0-1.756-.6,2.868,2.868,0,0,0-1.7.516,3.5,3.5,0,0,0-1.139,1.354V0H27.79V-11.623ZM44.591-1.407a2.863,2.863,0,0,0,1.858-.645,2.268,2.268,0,0,0,.881-1.611h1.88a3.6,3.6,0,0,1-.687,1.9A4.528,4.528,0,0,1,46.831-.322a4.882,4.882,0,0,1-2.24.537A4.788,4.788,0,0,1,40.815-1.37a6.311,6.311,0,0,1-1.4-4.334v-.333a7,7,0,0,1,.623-3.019,4.745,4.745,0,0,1,1.789-2.052,5.081,5.081,0,0,1,2.755-.73,4.662,4.662,0,0,1,3.25,1.171,4.185,4.185,0,0,1,1.38,3.04H47.33a2.739,2.739,0,0,0-.854-1.853,2.657,2.657,0,0,0-1.9-.725,2.781,2.781,0,0,0-2.347,1.09A5.121,5.121,0,0,0,41.4-5.962v.376a5.019,5.019,0,0,0,.827,3.094A2.8,2.8,0,0,0,44.591-1.407ZM56.268.215a5.078,5.078,0,0,1-3.846-1.552,5.761,5.761,0,0,1-1.482-4.152v-.365A6.975,6.975,0,0,1,51.6-8.943a5.154,5.154,0,0,1,1.848-2.127,4.645,4.645,0,0,1,2.573-.768,4.353,4.353,0,0,1,3.523,1.493A6.465,6.465,0,0,1,60.8-6.069v.827H52.927a4.132,4.132,0,0,0,1,2.777,3.157,3.157,0,0,0,2.444,1.058,3.461,3.461,0,0,0,1.783-.43,4.48,4.48,0,0,0,1.278-1.139l1.214.945A4.881,4.881,0,0,1,56.268.215Zm-.247-10.42A2.651,2.651,0,0,0,54-9.33a4.255,4.255,0,0,0-1.01,2.455h5.822v-.15A3.785,3.785,0,0,0,58-9.373,2.5,2.5,0,0,0,56.021-10.205ZM65.259,0H63.271V-16.5h1.987Z" transform="translate(4240.722 754.5)" fill="#fdf3eb"/>
  </g>
</svg>
