<svg xmlns="http://www.w3.org/2000/svg" width="85" height="39" viewBox="0 0 85 39">
  <g id="Group_1234" data-name="Group 1234" transform="translate(-4304 -1075)">
    <rect id="Rectangle_113" data-name="Rectangle 113" width="85" height="39" rx="8" transform="translate(4304 1075)" fill="#e9a598"/>
    <path id="Path_3201" data-name="Path 3201" d="M8.719-5.915H3.173V-1.38H9.615V0H1.485V-12.8H9.527v1.38H3.173v4.122H8.719Zm5.933-.123L16.761-9.51h1.9l-3.111,4.7L18.756,0H16.875l-2.2-3.56L12.48,0h-1.89L13.8-4.808l-3.111-4.7h1.881ZM22.148,0H20.522V-9.51h1.626ZM20.391-12.032a.971.971,0,0,1,.242-.668.907.907,0,0,1,.716-.272.922.922,0,0,1,.721.272.96.96,0,0,1,.246.668.929.929,0,0,1-.246.659.938.938,0,0,1-.721.264.924.924,0,0,1-.716-.264A.938.938,0,0,1,20.391-12.032Zm6.565.22v2.3h1.775v1.257H26.956v5.9a1.32,1.32,0,0,0,.237.858A1,1,0,0,0,28-1.2a3.937,3.937,0,0,0,.773-.105V0a4.742,4.742,0,0,1-1.248.175,2.025,2.025,0,0,1-1.644-.659,2.832,2.832,0,0,1-.554-1.872v-5.9H23.6V-9.51H25.33v-2.3Z" transform="translate(4332 1101)" fill="#fdf3eb"/>
  </g>
</svg>
