<svg xmlns="http://www.w3.org/2000/svg" width="31.511" height="31.511" viewBox="0 0 31.511 31.511">
  <g id="Group_1135" data-name="Group 1135" transform="translate(-665.358 -1429.725)">
    <path id="Path_3152" data-name="Path 3152" d="M1005.072,1610.415c-.513.031-1.03,0-1.545.007a.9.9,0,1,0,0,1.786c.515,0,1.031-.024,1.545.007a1.1,1.1,0,0,0,1.189-.662v-.477A1.1,1.1,0,0,0,1005.072,1610.415Z" transform="translate(-309.893 -165.836)" fill="none" stroke="#935d54" stroke-width="1"/>
    <path id="Path_3153" data-name="Path 3153" d="M847.839,1767.895a.9.9,0,1,0-1.786,0c0,.515.024,1.031-.008,1.545a1.1,1.1,0,0,0,.662,1.19h.477a1.1,1.1,0,0,0,.662-1.189C847.815,1768.926,847.843,1768.41,847.839,1767.895Z" transform="translate(-165.833 -309.893)" fill="none" stroke="#935d54" stroke-width="1"/>
    <path id="Path_3154" data-name="Path 3154" d="M747.923,1502.8a9.475,9.475,0,1,0,9.459,9.476A9.491,9.491,0,0,0,747.923,1502.8Zm1.3,17.046c-.423.066-.423.066-.423-.375v-7.21c0-2.443,0-4.886-.006-7.329,0-.263.06-.3.311-.253a7.687,7.687,0,0,1,.118,15.167Z" transform="translate(-66.794 -66.792)" fill="none" stroke="#935d54" stroke-width="1"/>
    <path id="Path_3155" data-name="Path 3155" d="M720.764,1486.4a.892.892,0,1,0,1.248-1.274c-.433-.45-.881-.885-1.323-1.326a.97.97,0,0,0-.651-.276.884.884,0,0,0-.8.516.839.839,0,0,0,.156.99C719.842,1485.5,720.3,1485.955,720.764,1486.4Z" transform="translate(-49.046 -49.056)" fill="none" stroke="#935d54" stroke-width="1"/>
    <path id="Path_3156" data-name="Path 3156" d="M957.806,1483.74c-.5.466-.983.952-1.451,1.451a.811.811,0,0,0-.132.942.887.887,0,0,0,.783.527.841.841,0,0,0,.589-.209c.5-.483,1-.964,1.469-1.474a.885.885,0,0,0-1.259-1.236Z" transform="translate(-267.155 -49.048)" fill="none" stroke="#935d54" stroke-width="1"/>
    <path id="Path_3157" data-name="Path 3157" d="M721.789,1720.637a.864.864,0,0,0-.987.191c-.442.427-.875.864-1.305,1.3a.895.895,0,1,0,1.256,1.27c.434-.421.857-.854,1.284-1.281a.948.948,0,0,0,.291-.622A.915.915,0,0,0,721.789,1720.637Z" transform="translate(-49.087 -267.211)" fill="none" stroke="#935d54" stroke-width="1"/>
    <path id="Path_3158" data-name="Path 3158" d="M957.729,1720.869a.921.921,0,0,0-.6-.275.911.911,0,0,0-.863.535.859.859,0,0,0,.185.988q.66.685,1.346,1.346a.892.892,0,1,0,1.255-1.267C958.619,1721.745,958.171,1721.309,957.729,1720.869Z" transform="translate(-267.205 -267.243)" fill="none" stroke="#935d54" stroke-width="1"/>
    <path id="Path_3159" data-name="Path 3159" d="M847.01,1433.918a.9.9,0,0,0,.9-.907c.007-.307,0-.615,0-.922,0-.327.008-.655,0-.981a.891.891,0,0,0-1.782.009q-.014.952,0,1.9A.891.891,0,0,0,847.01,1433.918Z" transform="translate(-165.908)" fill="none" stroke="#935d54" stroke-width="1"/>
    <path id="Path_3160" data-name="Path 3160" d="M668.656,1610.521c-.317-.008-.635,0-.952,0s-.635-.006-.952,0a.891.891,0,0,0-.015,1.782q.966.017,1.933,0a.891.891,0,0,0-.015-1.782Z" transform="translate(0 -165.933)" fill="none" stroke="#935d54" stroke-width="1"/>
  </g>
</svg>
