<svg xmlns="http://www.w3.org/2000/svg" width="167" height="43.49" viewBox="0 0 167 43.49">
  <g id="Group_1211" data-name="Group 1211" transform="translate(-130 -260)">
    <rect id="Rectangle_114" data-name="Rectangle 114" width="167" height="43.49" rx="5" transform="translate(130 260)" fill="#e9a598"/>
    <path id="Path_3186" data-name="Path 3186" d="M11.354-7.551A7.847,7.847,0,0,1,10.727-4.3,4.751,4.751,0,0,1,8.95-2.176a4.89,4.89,0,0,1-2.683.732A4.848,4.848,0,0,1,3.609-2.18a4.865,4.865,0,0,1-1.8-2.1,7.529,7.529,0,0,1-.658-3.158v-.915a7.754,7.754,0,0,1,.636-3.232,4.848,4.848,0,0,1,1.8-2.148,4.827,4.827,0,0,1,2.662-.745,4.917,4.917,0,0,1,2.688.736,4.743,4.743,0,0,1,1.79,2.135,7.885,7.885,0,0,1,.627,3.254ZM9.69-8.37a5.688,5.688,0,0,0-.906-3.463A2.989,2.989,0,0,0,6.249-13.04a2.956,2.956,0,0,0-2.5,1.207,5.571,5.571,0,0,0-.937,3.35v.932a5.7,5.7,0,0,0,.919,3.437,2.969,2.969,0,0,0,2.531,1.25A2.957,2.957,0,0,0,8.776-4.044,5.664,5.664,0,0,0,9.69-7.429ZM16.721-3.8l2.335-7.24H20.7l-3.38,9.427H16.094l-3.415-9.427h1.647Zm9.331,2.361A4.119,4.119,0,0,1,22.933-2.7a4.673,4.673,0,0,1-1.2-3.367v-.3a5.657,5.657,0,0,1,.536-2.5,4.18,4.18,0,0,1,1.5-1.725,3.768,3.768,0,0,1,2.087-.623,3.53,3.53,0,0,1,2.858,1.211A5.243,5.243,0,0,1,29.729-6.54v.671H23.343a3.351,3.351,0,0,0,.815,2.252,2.561,2.561,0,0,0,1.982.858,2.807,2.807,0,0,0,1.446-.348,3.634,3.634,0,0,0,1.037-.924l.984.767A3.959,3.959,0,0,1,26.052-1.444Zm-.2-8.451a2.15,2.15,0,0,0-1.638.71,3.451,3.451,0,0,0-.819,1.991h4.722v-.122a3.07,3.07,0,0,0-.662-1.9A2.024,2.024,0,0,0,25.852-9.895Zm10.3.3a4.83,4.83,0,0,0-.793-.061A2.124,2.124,0,0,0,33.2-8.309v6.691H31.593v-9.427h1.568l.026,1.089a2.51,2.51,0,0,1,2.248-1.263,1.647,1.647,0,0,1,.714.122Zm3.232,7.98H37.77V-15h1.612Zm8.4,0a3.386,3.386,0,0,1-.227-.993,3.6,3.6,0,0,1-2.683,1.167,3.328,3.328,0,0,1-2.287-.788,2.551,2.551,0,0,1-.893-2,2.665,2.665,0,0,1,1.12-2.287,5.278,5.278,0,0,1,3.149-.815h1.568v-.741a1.81,1.81,0,0,0-.505-1.346,2.031,2.031,0,0,0-1.49-.5,2.35,2.35,0,0,0-1.446.436A1.284,1.284,0,0,0,43.5-8.431h-1.62a2.224,2.224,0,0,1,.5-1.363,3.419,3.419,0,0,1,1.359-1.041,4.572,4.572,0,0,1,1.886-.383,3.727,3.727,0,0,1,2.553.815,2.939,2.939,0,0,1,.958,2.243v4.339a5.3,5.3,0,0,0,.331,2.065v.139ZM45.106-2.846a2.833,2.833,0,0,0,1.438-.392,2.371,2.371,0,0,0,.984-1.019V-6.192H46.265q-2.962,0-2.962,1.734a1.467,1.467,0,0,0,.505,1.185A1.942,1.942,0,0,0,45.106-2.846ZM54.62-3.979l2.2-7.066H58.54L54.75-.163q-.88,2.352-2.8,2.352l-.3-.026-.6-.113V.743l.436.035A2.145,2.145,0,0,0,52.76.447a2.4,2.4,0,0,0,.754-1.211l.357-.958-3.363-9.322h1.76ZM73.978-5.643a4.667,4.667,0,0,1-1.485,3.106,4.868,4.868,0,0,1-3.324,1.093,4.47,4.47,0,0,1-3.6-1.612,6.484,6.484,0,0,1-1.355-4.313v-1.22a7.228,7.228,0,0,1,.632-3.11,4.718,4.718,0,0,1,1.79-2.06,4.985,4.985,0,0,1,2.683-.719,4.584,4.584,0,0,1,3.241,1.128,4.723,4.723,0,0,1,1.42,3.123H72.3a3.645,3.645,0,0,0-.945-2.2,2.86,2.86,0,0,0-2.034-.682A2.993,2.993,0,0,0,66.8-11.924a5.444,5.444,0,0,0-.91,3.374v1.23a5.6,5.6,0,0,0,.863,3.287,2.787,2.787,0,0,0,2.413,1.221,3.219,3.219,0,0,0,2.139-.632,3.505,3.505,0,0,0,.989-2.2Zm1.6-.775a5.568,5.568,0,0,1,.545-2.492,4.062,4.062,0,0,1,1.516-1.708,4.127,4.127,0,0,1,2.217-.6,3.975,3.975,0,0,1,3.115,1.333A5.128,5.128,0,0,1,84.163-6.34v.113a5.616,5.616,0,0,1-.527,2.47,4,4,0,0,1-1.507,1.7,4.174,4.174,0,0,1-2.252.61,3.966,3.966,0,0,1-3.106-1.333,5.1,5.1,0,0,1-1.189-3.528Zm1.62.192a4.033,4.033,0,0,0,.727,2.518,2.328,2.328,0,0,0,1.947.95,2.314,2.314,0,0,0,1.952-.963,4.41,4.41,0,0,0,.723-2.7,4.026,4.026,0,0,0-.736-2.513,2.34,2.34,0,0,0-1.956-.963,2.314,2.314,0,0,0-1.925.95A4.377,4.377,0,0,0,77.2-6.227ZM87.935-1.618H86.324V-15h1.612Zm2.152-4.8a5.568,5.568,0,0,1,.545-2.492,4.062,4.062,0,0,1,1.516-1.708,4.127,4.127,0,0,1,2.217-.6A3.975,3.975,0,0,1,97.48-9.886,5.128,5.128,0,0,1,98.669-6.34v.113a5.616,5.616,0,0,1-.527,2.47,4,4,0,0,1-1.507,1.7,4.174,4.174,0,0,1-2.252.61,3.966,3.966,0,0,1-3.106-1.333,5.1,5.1,0,0,1-1.189-3.528Zm1.62.192a4.033,4.033,0,0,0,.727,2.518,2.328,2.328,0,0,0,1.947.95,2.314,2.314,0,0,0,1.952-.963,4.41,4.41,0,0,0,.723-2.7,4.026,4.026,0,0,0-.736-2.513,2.34,2.34,0,0,0-1.956-.963,2.314,2.314,0,0,0-1.925.95A4.377,4.377,0,0,0,91.708-6.227ZM105.247-9.6a4.83,4.83,0,0,0-.793-.061,2.124,2.124,0,0,0-2.152,1.35v6.691H100.69v-9.427h1.568l.026,1.089a2.51,2.51,0,0,1,2.248-1.263,1.647,1.647,0,0,1,.714.122Z" transform="translate(170.177 288.15)" fill="#fdf3eb"/>
    <g id="Group_1208" data-name="Group 1208" transform="translate(6.629 1.629)">
      <g id="Group_1090" data-name="Group 1090" transform="translate(138.036 272.546)">
        <g id="Group_1088" data-name="Group 1088" transform="translate(2.886 5.961)">
          <path id="Path_1626" data-name="Path 1626" d="M122.868,902.57a.153.153,0,0,0,.043-.08,6.817,6.817,0,0,0,.1-.935c.017-.257.019-.514.023-.772a3.618,3.618,0,0,0,.02-.485,9.5,9.5,0,0,1-.015-1.3.662.662,0,0,1,.719-.678c.172,0,.345,0,.517,0,.057,0,.074-.018.074-.071,0-.127.007-.254.008-.382a1.686,1.686,0,0,0-.142-.725.935.935,0,0,1-.052-.582,1.017,1.017,0,1,1,1.991.415c-.029.14-.1.262-.139.4a3.09,3.09,0,0,0-.045.894c0,.048.027.052.066.052.175,0,.351,0,.526,0a.793.793,0,0,1,.21.02.678.678,0,0,1,.51.693q0,.573,0,1.145a.733.733,0,0,1-.043.274.082.082,0,0,0-.006.073.832.832,0,0,1,.053.365,11.2,11.2,0,0,0,.1,1.513.367.367,0,0,0,.091.2.475.475,0,0,1-.09.706,1.742,1.742,0,0,1-.254.1h-.323c-.007-.016-.02-.017-.034-.014h-.1c-.014,0-.029-.008-.033.014h-.034c-.28-.012-.56-.046-.841-.041-.532.008-1.066-.021-1.6.016-.143.01-.286,0-.428.025h-.068c-.011-.012-.025-.008-.038-.009h-.093c-.013,0-.028,0-.038.009h-.17a.093.093,0,0,0-.085,0h-.034c-.008-.022-.027-.013-.043-.016a.477.477,0,0,1-.418-.311A.466.466,0,0,1,122.868,902.57Zm.607.384c.229,0,.457-.029.685-.045.057,0,.074-.029.085-.078.068-.306.139-.61.209-.915a.176.176,0,0,1,.031-.07c.035.309.071.618.106.927.013.118.011.119.125.119.348,0,.7,0,1.043,0a.083.083,0,0,0,.093-.061c.071-.18.148-.358.229-.553a.7.7,0,0,1,.01.192c0,.124,0,.249,0,.373,0,.031-.006.06.042.064a7.712,7.712,0,0,0,.939.047c.019,0,.04,0,.052-.023a.624.624,0,0,1-.193-.451,11.021,11.021,0,0,1-.112-1.656c0-.061-.014-.079-.078-.079q-1.582,0-3.163,0c-.061,0-.08.011-.081.077,0,.441-.019.882-.065,1.321a3.221,3.221,0,0,1-.082.509.407.407,0,0,1-.179.288A1.237,1.237,0,0,0,123.475,902.954Z" transform="translate(-122.721 -895.743)" fill="#fdf3eb"/>
          <path id="Path_1627" data-name="Path 1627" d="M125.656,924.074h-.034v-.009C125.634,924.066,125.647,924.064,125.656,924.074Z" transform="translate(-121.565 -916.407)" fill="#fdf3eb"/>
          <path id="Path_1628" data-name="Path 1628" d="M125.777,924.066h0s0,0,0,0,0,0,.005,0h-.034v-.009Z" transform="translate(-121.724 -916.407)" fill="#fdf3eb"/>
          <path id="Path_1629" data-name="Path 1629" d="M125.748,924.051s0,0,0-.006h0v.006Z" transform="translate(-121.694 -916.391)" fill="#fdf3eb"/>
          <path id="Path_1630" data-name="Path 1630" d="M125.875,924.066h.029s0,0,0,0,0,0,.005,0h-.034v-.009Z" transform="translate(-121.884 -916.407)" fill="#fdf3eb"/>
          <path id="Path_1631" data-name="Path 1631" d="M125.876,924.051h0s0,0,0-.005v.005Z" transform="translate(-121.854 -916.392)" fill="#fdf3eb"/>
          <path id="Path_1632" data-name="Path 1632" d="M126,924.066h.026s0,0,0,0,0,0,.005,0H126v-.009Z" transform="translate(-122.043 -916.407)" fill="#fdf3eb"/>
          <path id="Path_1633" data-name="Path 1633" d="M126,924.051s0,0,0-.005v.005Z" transform="translate(-122.013 -916.392)" fill="#fdf3eb"/>
          <path id="Path_1634" data-name="Path 1634" d="M126.152,924.07s0,0,.005,0h-.034a.036.036,0,0,1,.031-.009S126.152,924.069,126.152,924.07Z" transform="translate(-122.203 -916.407)" fill="#fdf3eb"/>
          <path id="Path_1635" data-name="Path 1635" d="M126.125,924.051s0,0,0-.005h0v.005Z" transform="translate(-122.173 -916.392)" fill="#fdf3eb"/>
        </g>
        <g id="Group_1089" data-name="Group 1089" transform="translate(0)">
          <path id="Path_1636" data-name="Path 1636" d="M99.951,877.23q-2.279-.007-4.557,0c-.157,0-.187-.047-.184-.191.009-.442,0-.884,0-1.326a1.934,1.934,0,0,1,2.022-2.018h3.447c1.166,0,2.331,0,3.5,0a1.929,1.929,0,0,1,1.988,1.984q0,3.5,0,6.993a1.93,1.93,0,0,1-1.979,1.977c-.464,0-.928-.005-1.392,0-.133,0-.161-.036-.161-.164,0-1.5,0-3,0-4.507a2.964,2.964,0,0,0-.077-.722A2.649,2.649,0,0,0,99.951,877.23Z" transform="translate(-90.969 -873.698)" fill="#fdf3eb"/>
          <path id="Path_1637" data-name="Path 1637" d="M110.9,891.379a1.929,1.929,0,0,1,2-1.99q3.48,0,6.96,0a1.929,1.929,0,0,1,1.995,1.995q0,3.48,0,6.96a1.932,1.932,0,0,1-2.007,2q-3.472,0-6.944,0a2.107,2.107,0,0,1-.542-.059,1.934,1.934,0,0,1-1.461-1.913c0-1.166,0-2.331,0-3.5S110.9,892.545,110.9,891.379Zm1.06,6.926a.883.883,0,0,0,.97.977h6.894a.879.879,0,0,0,.969-.962q0-3.456,0-6.911a.878.878,0,0,0-.97-.961h-3.447c-1.143,0-2.287.015-3.43-.007a.941.941,0,0,0-.992.985C111.972,893.72,111.963,896.013,111.963,898.305Z" transform="translate(-110.901 -885.145)" fill="#fdf3eb"/>
        </g>
      </g>
      <g id="Ellipse_20" data-name="Ellipse 20" transform="translate(132.371 267.371)" fill="none" stroke="#fdf3eb" stroke-width="1">
        <circle cx="13" cy="13" r="13" stroke="none"/>
        <circle cx="13" cy="13" r="12.5" fill="none"/>
      </g>
    </g>
  </g>
</svg>
