<svg xmlns="http://www.w3.org/2000/svg" width="166" height="43.49" viewBox="0 0 166 43.49">
  <g id="Group_1213" data-name="Group 1213" transform="translate(-131 -406.323)">
    <rect id="Rectangle_114" data-name="Rectangle 114" width="166" height="43.49" rx="5" transform="translate(131 406.323)" fill="#e9a598"/>
    <path id="Path_3188" data-name="Path 3188" d="M3.849-5.662a5.688,5.688,0,0,1-2.265-1.1,2.1,2.1,0,0,1-.709-1.61,2.219,2.219,0,0,1,.866-1.792,3.443,3.443,0,0,1,2.252-.709,3.758,3.758,0,0,1,1.685.365A2.771,2.771,0,0,1,6.826-9.5a2.578,2.578,0,0,1,.406,1.4H6.017a1.677,1.677,0,0,0-.529-1.312,2.152,2.152,0,0,0-1.493-.477,2.2,2.2,0,0,0-1.4.394,1.316,1.316,0,0,0-.5,1.095,1.184,1.184,0,0,0,.476.95,4.666,4.666,0,0,0,1.619.71,7.513,7.513,0,0,1,1.789.709,2.715,2.715,0,0,1,.958.9A2.307,2.307,0,0,1,7.251-3.9a2.143,2.143,0,0,1-.869,1.786,3.707,3.707,0,0,1-2.325.671,4.312,4.312,0,0,1-1.764-.362A2.969,2.969,0,0,1,1.03-2.8a2.422,2.422,0,0,1-.444-1.43H1.8a1.58,1.58,0,0,0,.614,1.314,2.586,2.586,0,0,0,1.641.482,2.378,2.378,0,0,0,1.468-.391,1.269,1.269,0,0,0,.51-1.065,1.246,1.246,0,0,0-.473-1.043A5.448,5.448,0,0,0,3.849-5.662Zm7.6,4.215a2.978,2.978,0,0,1-2.255-.91,3.379,3.379,0,0,1-.869-2.435v-.214A4.091,4.091,0,0,1,8.71-6.818,3.022,3.022,0,0,1,9.794-8.065a2.724,2.724,0,0,1,1.509-.45,2.553,2.553,0,0,1,2.066.876,3.792,3.792,0,0,1,.737,2.507v.485H9.488a2.423,2.423,0,0,0,.589,1.629A1.852,1.852,0,0,0,11.51-2.4a2.03,2.03,0,0,0,1.046-.252,2.628,2.628,0,0,0,.75-.668l.712.554A2.863,2.863,0,0,1,11.447-1.447ZM11.3-7.558a1.555,1.555,0,0,0-1.184.513,2.5,2.5,0,0,0-.592,1.44H12.94v-.088a2.22,2.22,0,0,0-.479-1.377A1.464,1.464,0,0,0,11.3-7.558Zm5.418,5.985H15.555V-11.25h1.166Zm4.694.126a2.978,2.978,0,0,1-2.255-.91,3.379,3.379,0,0,1-.869-2.435v-.214a4.091,4.091,0,0,1,.387-1.811A3.022,3.022,0,0,1,19.76-8.065a2.724,2.724,0,0,1,1.509-.45,2.553,2.553,0,0,1,2.066.876,3.792,3.792,0,0,1,.737,2.507v.485H19.455a2.423,2.423,0,0,0,.589,1.629,1.852,1.852,0,0,0,1.433.621,2.03,2.03,0,0,0,1.046-.252,2.628,2.628,0,0,0,.75-.668l.712.554A2.863,2.863,0,0,1,21.414-1.447Zm-.145-6.111a1.555,1.555,0,0,0-1.184.513,2.5,2.5,0,0,0-.592,1.44h3.415v-.088a2.22,2.22,0,0,0-.479-1.377A1.464,1.464,0,0,0,21.269-7.558ZM28.155-2.4a1.679,1.679,0,0,0,1.09-.378,1.33,1.33,0,0,0,.517-.945h1.1a2.114,2.114,0,0,1-.4,1.115,2.656,2.656,0,0,1-.992.844,2.863,2.863,0,0,1-1.314.315,2.808,2.808,0,0,1-2.214-.929,3.7,3.7,0,0,1-.822-2.542v-.2a4.1,4.1,0,0,1,.365-1.77,2.783,2.783,0,0,1,1.049-1.2,2.98,2.98,0,0,1,1.616-.428,2.734,2.734,0,0,1,1.906.687,2.454,2.454,0,0,1,.81,1.783h-1.1a1.606,1.606,0,0,0-.5-1.087,1.558,1.558,0,0,0-1.112-.425,1.631,1.631,0,0,0-1.377.639,3,3,0,0,0-.488,1.849v.221a2.943,2.943,0,0,0,.485,1.814A1.639,1.639,0,0,0,28.155-2.4Zm5.6-7.642V-8.39h1.273v.9H33.756v4.233a.946.946,0,0,0,.17.615.716.716,0,0,0,.58.2,2.822,2.822,0,0,0,.554-.076v.94a3.4,3.4,0,0,1-.895.125,1.452,1.452,0,0,1-1.178-.473,2.03,2.03,0,0,1-.4-1.342V-7.489H31.349v-.9h1.241V-10.04Zm7.22,4.876v3.591h-1.21v-9.173H43.15a3.4,3.4,0,0,1,2.359.769,2.606,2.606,0,0,1,.854,2.035,2.571,2.571,0,0,1-.835,2.057,3.551,3.551,0,0,1-2.391.721Zm0-.989H43.15a2.173,2.173,0,0,0,1.487-.458,1.673,1.673,0,0,0,.517-1.322,1.728,1.728,0,0,0-.517-1.313,2.036,2.036,0,0,0-1.418-.511H40.976Zm10.887,4.58a2.448,2.448,0,0,1-.164-.718,2.6,2.6,0,0,1-1.94.844,2.406,2.406,0,0,1-1.654-.57,1.845,1.845,0,0,1-.646-1.446,1.927,1.927,0,0,1,.81-1.654,3.817,3.817,0,0,1,2.277-.589H51.68v-.536a1.309,1.309,0,0,0-.365-.973,1.469,1.469,0,0,0-1.077-.362,1.7,1.7,0,0,0-1.046.315.928.928,0,0,0-.422.762H47.6a1.608,1.608,0,0,1,.362-.986,2.472,2.472,0,0,1,.983-.753,3.306,3.306,0,0,1,1.364-.277,2.7,2.7,0,0,1,1.846.589A2.125,2.125,0,0,1,52.845-6.3v3.137a3.836,3.836,0,0,0,.239,1.493v.1Zm-1.934-.888a2.048,2.048,0,0,0,1.04-.284,1.715,1.715,0,0,0,.712-.737v-1.4h-.914q-2.142,0-2.142,1.254a1.061,1.061,0,0,0,.365.857A1.4,1.4,0,0,0,49.928-2.461ZM54.4-5.038a4.006,4.006,0,0,1,.737-2.536,2.357,2.357,0,0,1,1.953-.942,2.345,2.345,0,0,1,1.947.882l.057-.756h1.065v6.653A2.773,2.773,0,0,1,59.369.349a2.9,2.9,0,0,1-2.107.762A3.506,3.506,0,0,1,55.819.8a2.484,2.484,0,0,1-1.077-.863l.6-.7A2.279,2.279,0,0,0,57.18.16a1.786,1.786,0,0,0,1.326-.479,1.83,1.83,0,0,0,.476-1.348v-.586a2.4,2.4,0,0,1-1.909.806,2.328,2.328,0,0,1-1.937-.964A4.212,4.212,0,0,1,54.4-5.038Zm1.172.132a3.056,3.056,0,0,0,.473,1.811,1.535,1.535,0,0,0,1.323.658,1.707,1.707,0,0,0,1.619-1V-6.55a1.727,1.727,0,0,0-1.607-.977,1.549,1.549,0,0,0-1.329.662A3.329,3.329,0,0,0,55.567-4.906ZM64.74-1.447a2.978,2.978,0,0,1-2.255-.91,3.379,3.379,0,0,1-.869-2.435v-.214A4.091,4.091,0,0,1,62-6.818a3.022,3.022,0,0,1,1.084-1.247,2.724,2.724,0,0,1,1.509-.45,2.553,2.553,0,0,1,2.066.876A3.792,3.792,0,0,1,67.4-5.133v.485H62.781a2.423,2.423,0,0,0,.589,1.629A1.852,1.852,0,0,0,64.8-2.4a2.03,2.03,0,0,0,1.046-.252,2.628,2.628,0,0,0,.75-.668l.712.554A2.863,2.863,0,0,1,64.74-1.447ZM64.6-7.558a1.555,1.555,0,0,0-1.184.513,2.5,2.5,0,0,0-.592,1.44h3.415v-.088a2.22,2.22,0,0,0-.479-1.377A1.464,1.464,0,0,0,64.6-7.558Zm10.231,1.9a5.688,5.688,0,0,1-2.265-1.1,2.1,2.1,0,0,1-.709-1.61,2.219,2.219,0,0,1,.866-1.792,3.443,3.443,0,0,1,2.252-.709,3.758,3.758,0,0,1,1.685.365A2.771,2.771,0,0,1,77.8-9.5a2.578,2.578,0,0,1,.406,1.4H76.994a1.677,1.677,0,0,0-.529-1.312,2.152,2.152,0,0,0-1.493-.477,2.2,2.2,0,0,0-1.4.394,1.316,1.316,0,0,0-.5,1.095,1.184,1.184,0,0,0,.476.95,4.666,4.666,0,0,0,1.619.71,7.513,7.513,0,0,1,1.789.709,2.715,2.715,0,0,1,.958.9A2.307,2.307,0,0,1,78.229-3.9a2.143,2.143,0,0,1-.869,1.786,3.707,3.707,0,0,1-2.325.671,4.312,4.312,0,0,1-1.764-.362A2.969,2.969,0,0,1,72.007-2.8a2.422,2.422,0,0,1-.444-1.43h1.216a1.58,1.58,0,0,0,.614,1.314,2.586,2.586,0,0,0,1.641.482A2.378,2.378,0,0,0,76.5-2.827a1.269,1.269,0,0,0,.51-1.065,1.246,1.246,0,0,0-.473-1.043A5.448,5.448,0,0,0,74.827-5.662Zm4.46.617a4.026,4.026,0,0,1,.394-1.8,2.937,2.937,0,0,1,1.1-1.235,2.984,2.984,0,0,1,1.6-.435,2.875,2.875,0,0,1,2.252.964,3.708,3.708,0,0,1,.86,2.564v.082a4.061,4.061,0,0,1-.381,1.786,2.894,2.894,0,0,1-1.09,1.232,3.018,3.018,0,0,1-1.629.441,2.868,2.868,0,0,1-2.246-.964,3.69,3.69,0,0,1-.86-2.552Zm1.172.139a2.916,2.916,0,0,0,.526,1.821,1.684,1.684,0,0,0,1.408.687,1.673,1.673,0,0,0,1.411-.7,3.189,3.189,0,0,0,.523-1.95,2.911,2.911,0,0,0-.532-1.818,1.692,1.692,0,0,0-1.414-.7,1.674,1.674,0,0,0-1.392.687A3.165,3.165,0,0,0,80.459-4.906Zm10.7,2.659a2.476,2.476,0,0,1-2,.8,2.119,2.119,0,0,1-1.66-.633,2.741,2.741,0,0,1-.576-1.874V-8.39h1.166v4.4q0,1.55,1.26,1.55a1.745,1.745,0,0,0,1.777-1V-8.39H92.3v6.817H91.188ZM95.17-8.39l.038.857a2.484,2.484,0,0,1,2.041-.983q2.161,0,2.18,2.438v4.5H98.263V-6.084a1.569,1.569,0,0,0-.337-1.09,1.351,1.351,0,0,0-1.03-.353,1.682,1.682,0,0,0-1,.3,2.054,2.054,0,0,0-.668.794v4.857H94.067V-8.39ZM100.9-5.038a3.993,3.993,0,0,1,.743-2.523,2.351,2.351,0,0,1,1.947-.954,2.364,2.364,0,0,1,1.9.819V-11.25h1.166v9.677h-1.071l-.057-.731a2.374,2.374,0,0,1-1.947.857,2.328,2.328,0,0,1-1.931-.97A4.039,4.039,0,0,1,100.9-4.95Zm1.166.132a3.024,3.024,0,0,0,.479,1.814,1.548,1.548,0,0,0,1.323.655,1.7,1.7,0,0,0,1.619-1V-6.563a1.713,1.713,0,0,0-1.607-.964,1.555,1.555,0,0,0-1.336.662A3.329,3.329,0,0,0,102.068-4.906Z" transform="translate(170.38 433.138)" fill="#fdf3eb"/>
    <g id="Group_1209" data-name="Group 1209" transform="translate(6 1)">
      <g id="Group_1131" data-name="Group 1131" transform="translate(137.643 419.571)">
        <path id="Path_3162" data-name="Path 3162" d="M1180.8,1514.064a.585.585,0,0,0-.33-.488.707.707,0,0,0-.749.1q-2.7,1.822-5.412,3.639a.594.594,0,0,1-.355.105c-.867,0-1.733.01-2.6-.008a.748.748,0,0,0-.811.48v6.267a.744.744,0,0,0,.81.481c.861-.017,1.722,0,2.583-.008a.641.641,0,0,1,.385.115q2.683,1.809,5.372,3.61a1.392,1.392,0,0,0,.245.139.619.619,0,0,0,.825-.37,1.118,1.118,0,0,0,.045-.361q0-6.749,0-13.5A1.727,1.727,0,0,0,1180.8,1514.064Z" transform="translate(-1170.547 -1513.507)" fill="#fdf3eb"/>
        <path id="Path_3163" data-name="Path 3163" d="M1443.83,1564.061a6.682,6.682,0,0,0-2.037-3.693c-.079-.073-.115-.063-.181.011-.215.239-.432.479-.661.7-.107.105-.094.162.007.26a5.527,5.527,0,0,1,1.464,2.383,5.655,5.655,0,0,1,.065,3.169,5.6,5.6,0,0,1-1.567,2.64c-.08.077-.062.115,0,.182.231.24.46.482.681.732.08.091.124.078.2,0a6.914,6.914,0,0,0,2.156-4.877A7.672,7.672,0,0,0,1443.83,1564.061Z" transform="translate(-1426.899 -1557.899)" fill="#fdf3eb"/>
        <path id="Path_3164" data-name="Path 3164" d="M1400.351,1603.313c-.216.253-.439.5-.664.747-.068.074-.081.116,0,.2a2.622,2.622,0,0,1-.007,3.757c-.073.071-.062.106,0,.171.232.254.462.51.686.771.065.075.1.066.164,0a3.884,3.884,0,0,0,1.232-2.774,3.935,3.935,0,0,0-1.221-2.882C1400.46,1603.227,1400.421,1603.231,1400.351,1603.313Z" transform="translate(-1387.793 -1598.612)" fill="#fdf3eb"/>
      </g>
      <g id="Ellipse_22" data-name="Ellipse 22" transform="translate(133 414)" fill="none" stroke="#fdf3eb" stroke-width="1">
        <circle cx="13" cy="13" r="13" stroke="none"/>
        <circle cx="13" cy="13" r="12.5" fill="none"/>
      </g>
    </g>
  </g>
</svg>
