<svg xmlns="http://www.w3.org/2000/svg" width="31.141" height="31.142" viewBox="0 0 31.141 31.142">
  <path id="Path_3173" data-name="Path 3173" d="M1451.253,1194.478a1.335,1.335,0,0,0-.591-.309c-.97-.238-1.941-.469-2.911-.71a.555.555,0,0,1-.448-.4,8.273,8.273,0,0,0-.5-1.19.61.61,0,0,1,.039-.658q.654-1.063,1.286-2.14a1,1,0,0,0-.192-1.49q-1.088-1.092-2.181-2.181a1.044,1.044,0,0,0-1.544-.182c-.723.432-1.446.863-2.165,1.3a.519.519,0,0,1-.549.027,7.164,7.164,0,0,0-1.136-.477.7.7,0,0,1-.516-.595c-.228-.942-.444-1.887-.687-2.825a.944.944,0,0,0-.79-.795h-3.882a.94.94,0,0,0-.786.766c-.019.066-.035.132-.05.2-.213.927-.452,1.847-.674,2.771a.56.56,0,0,1-.4.452,8.252,8.252,0,0,0-1.3.544.579.579,0,0,1-.629-.025c-.737-.448-1.469-.9-2.212-1.341a1.08,1.08,0,0,0-1.577.191q-1.088,1.074-2.162,2.162a1.091,1.091,0,0,0-.18,1.513c.466.784.931,1.567,1.409,2.343a.583.583,0,0,1,.042.63,6.781,6.781,0,0,0-.414,1,.526.526,0,0,1-.455.4c-.125.021-.248.059-.371.091-.834.219-1.679.4-2.513.614a.984.984,0,0,0-.866,1.107q0,1.676,0,3.352a.954.954,0,0,0,.74,1c.1.032.208.057.313.082.9.212,1.79.437,2.686.651a.6.6,0,0,1,.49.442,7.466,7.466,0,0,0,.507,1.22.523.523,0,0,1-.03.572c-.418.675-.823,1.357-1.228,2.04a1.063,1.063,0,0,0,.186,1.525q1.08,1.083,2.162,2.162a1.076,1.076,0,0,0,1.573.194c.665-.4,1.333-.788,1.989-1.2a.567.567,0,0,1,.627-.037,5.1,5.1,0,0,0,1.026.436.835.835,0,0,1,.651.725c.2.918.437,1.83.664,2.743a.935.935,0,0,0,.937.815c1.2.007,2.391,0,3.587,0a.908.908,0,0,0,.838-.544,1.627,1.627,0,0,0,.137-.418c.213-.926.454-1.846.674-2.771a.589.589,0,0,1,.436-.495,8.657,8.657,0,0,0,1.273-.533.525.525,0,0,1,.548.034c.7.431,1.409.852,2.117,1.272a1.078,1.078,0,0,0,1.512-.18q1.1-1.084,2.183-2.183a1.062,1.062,0,0,0,.177-1.551c-.422-.707-.842-1.415-1.273-2.116a.535.535,0,0,1-.028-.575,8.174,8.174,0,0,0,.487-1.165.579.579,0,0,1,.474-.417c.961-.237,1.924-.465,2.885-.7a.956.956,0,0,0,.823-.8v-3.882A.9.9,0,0,0,1451.253,1194.478Zm-14.839,8.6a6.175,6.175,0,1,1,6.189-6.174A6.194,6.194,0,0,1,1436.414,1203.083Z" transform="translate(-1420.844 -1181.352)" fill="none" stroke="#935d54" stroke-width="1"/>
</svg>
