<svg xmlns="http://www.w3.org/2000/svg" width="85" height="39" viewBox="0 0 85 39">
  <g id="Group_1206" data-name="Group 1206" transform="translate(-259 -708)">
    <rect id="Rectangle_113" data-name="Rectangle 113" width="85" height="39" rx="8" transform="translate(259 708)" fill="#e9a598"/>
    <path id="Path_3161" data-name="Path 3161" d="M7.552-6.327H3.878V0H1.8V-15.641H6.982a6.128,6.128,0,0,1,4.066,1.2,4.329,4.329,0,0,1,1.423,3.5,4.211,4.211,0,0,1-.79,2.546,4.713,4.713,0,0,1-2.2,1.622L13.159-.129V0H10.946ZM3.878-8.014H7.047a3.574,3.574,0,0,0,2.444-.8,2.693,2.693,0,0,0,.908-2.131,2.836,2.836,0,0,0-.865-2.228,3.662,3.662,0,0,0-2.5-.786H3.878Zm16,8.229a5.078,5.078,0,0,1-3.846-1.552,5.761,5.761,0,0,1-1.482-4.152v-.365a6.975,6.975,0,0,1,.661-3.088,5.154,5.154,0,0,1,1.848-2.127,4.645,4.645,0,0,1,2.573-.768,4.353,4.353,0,0,1,3.523,1.493,6.465,6.465,0,0,1,1.257,4.275v.827H16.532a4.132,4.132,0,0,0,1,2.777A3.157,3.157,0,0,0,19.98-1.407a3.461,3.461,0,0,0,1.783-.43,4.48,4.48,0,0,0,1.278-1.139l1.214.945A4.881,4.881,0,0,1,19.873.215Zm-.247-10.42a2.651,2.651,0,0,0-2.02.875A4.255,4.255,0,0,0,16.6-6.875h5.822v-.15A3.785,3.785,0,0,0,21.6-9.373,2.5,2.5,0,0,0,19.626-10.205ZM33.473-3.083a1.463,1.463,0,0,0-.607-1.251A5.842,5.842,0,0,0,30.75-5.1a10.005,10.005,0,0,1-2.4-.773A3.408,3.408,0,0,1,27.043-6.95a2.57,2.57,0,0,1-.424-1.482,3.015,3.015,0,0,1,1.208-2.417,4.72,4.72,0,0,1,3.088-.988,4.857,4.857,0,0,1,3.207,1.021,3.241,3.241,0,0,1,1.23,2.61h-2a1.794,1.794,0,0,0-.693-1.407,2.6,2.6,0,0,0-1.746-.591,2.717,2.717,0,0,0-1.7.473A1.488,1.488,0,0,0,28.606-8.5a1.205,1.205,0,0,0,.569,1.085,7,7,0,0,0,2.057.7,10.719,10.719,0,0,1,2.412.795,3.518,3.518,0,0,1,1.37,1.112,2.734,2.734,0,0,1,.446,1.584,2.975,2.975,0,0,1-1.246,2.5,5.227,5.227,0,0,1-3.233.94A5.853,5.853,0,0,1,28.51-.279a4.018,4.018,0,0,1-1.681-1.38,3.327,3.327,0,0,1-.607-1.917h1.987a2.058,2.058,0,0,0,.8,1.584,3.1,3.1,0,0,0,1.971.585,3.2,3.2,0,0,0,1.81-.457A1.4,1.4,0,0,0,33.473-3.083Zm9.4,3.3a5.078,5.078,0,0,1-3.846-1.552,5.761,5.761,0,0,1-1.482-4.152v-.365A6.975,6.975,0,0,1,38.2-8.943a5.154,5.154,0,0,1,1.848-2.127,4.645,4.645,0,0,1,2.573-.768,4.353,4.353,0,0,1,3.523,1.493,6.465,6.465,0,0,1,1.257,4.275v.827H39.531a4.132,4.132,0,0,0,1,2.777,3.157,3.157,0,0,0,2.444,1.058,3.461,3.461,0,0,0,1.783-.43,4.48,4.48,0,0,0,1.278-1.139l1.214.945A4.881,4.881,0,0,1,42.872.215Zm-.247-10.42a2.651,2.651,0,0,0-2.02.875A4.255,4.255,0,0,0,39.6-6.875h5.822v-.15A3.785,3.785,0,0,0,44.6-9.373,2.5,2.5,0,0,0,42.625-10.205ZM52.4-14.437v2.814h2.17v1.536H52.4V-2.87a1.613,1.613,0,0,0,.29,1.049,1.221,1.221,0,0,0,.988.35,4.811,4.811,0,0,0,.945-.129V0A5.8,5.8,0,0,1,53.1.215,2.475,2.475,0,0,1,51.09-.591a3.461,3.461,0,0,1-.677-2.288v-7.208H48.3v-1.536h2.116v-2.814Z" transform="translate(273.195 735.641)" fill="#fdf3eb"/>
  </g>
</svg>
