<svg xmlns="http://www.w3.org/2000/svg" width="71" height="33" viewBox="0 0 71 33">
  <g id="Group_1217" data-name="Group 1217" transform="translate(-237 -663)">
    <rect id="Rectangle_113" data-name="Rectangle 113" width="71" height="33" rx="8" transform="translate(237 663)" fill="#e9a598"/>
    <path id="Path_3195" data-name="Path 3195" d="M4.38-4.753A6.612,6.612,0,0,1,1.747-6.031,2.442,2.442,0,0,1,.923-7.9,2.58,2.58,0,0,1,1.93-9.987a4,4,0,0,1,2.618-.824,4.369,4.369,0,0,1,1.959.425A3.222,3.222,0,0,1,7.841-9.214a3,3,0,0,1,.472,1.633H6.9a1.95,1.95,0,0,0-.615-1.525,2.5,2.5,0,0,0-1.736-.555A2.561,2.561,0,0,0,2.926-9.2a1.53,1.53,0,0,0-.582,1.273,1.376,1.376,0,0,0,.553,1.1A5.424,5.424,0,0,0,4.779-6a8.734,8.734,0,0,1,2.08.825A3.157,3.157,0,0,1,7.972-4.124,2.683,2.683,0,0,1,8.335-2.71,2.492,2.492,0,0,1,7.324-.634a4.31,4.31,0,0,1-2.7.78A5.013,5.013,0,0,1,2.571-.275,3.451,3.451,0,0,1,1.1-1.428,2.815,2.815,0,0,1,.586-3.091H2a1.837,1.837,0,0,0,.714,1.527A3.007,3.007,0,0,0,4.622-1a2.764,2.764,0,0,0,1.707-.454A1.475,1.475,0,0,0,6.921-2.7a1.448,1.448,0,0,0-.549-1.212A6.333,6.333,0,0,0,4.38-4.753ZM14.817,0a2.846,2.846,0,0,1-.19-.835,3.023,3.023,0,0,1-2.256.981,2.8,2.8,0,0,1-1.923-.663A2.145,2.145,0,0,1,9.7-2.2a2.24,2.24,0,0,1,.941-1.923A4.437,4.437,0,0,1,13.286-4.8H14.6v-.623a1.522,1.522,0,0,0-.425-1.132,1.707,1.707,0,0,0-1.252-.421,1.976,1.976,0,0,0-1.216.366,1.079,1.079,0,0,0-.491.886H9.858a1.87,1.87,0,0,1,.421-1.146,2.874,2.874,0,0,1,1.143-.875,3.844,3.844,0,0,1,1.586-.322,3.133,3.133,0,0,1,2.146.685A2.47,2.47,0,0,1,15.959-5.5v3.647a4.459,4.459,0,0,0,.278,1.736V0ZM12.568-1.033a2.381,2.381,0,0,0,1.208-.33,1.994,1.994,0,0,0,.828-.857V-3.845H13.542q-2.49,0-2.49,1.458a1.234,1.234,0,0,0,.425,1A1.633,1.633,0,0,0,12.568-1.033Zm8.02-.806,1.963-6.086h1.384L21.094,0H20.061L17.19-7.925h1.384ZM28.433.146A3.463,3.463,0,0,1,25.811-.912,3.928,3.928,0,0,1,24.8-3.743v-.249A4.756,4.756,0,0,1,25.25-6.1a3.514,3.514,0,0,1,1.26-1.45,3.167,3.167,0,0,1,1.754-.524,2.968,2.968,0,0,1,2.4,1.018,4.408,4.408,0,0,1,.857,2.915v.564H26.155a2.817,2.817,0,0,0,.685,1.893,2.153,2.153,0,0,0,1.666.721,2.36,2.36,0,0,0,1.216-.293,3.055,3.055,0,0,0,.872-.776l.828.645A3.328,3.328,0,0,1,28.433.146Zm-.168-7.1a1.807,1.807,0,0,0-1.377.6A2.9,2.9,0,0,0,26.2-4.687h3.97v-.1a2.581,2.581,0,0,0-.557-1.6A1.7,1.7,0,0,0,28.264-6.958Z" transform="translate(264.064 684.927)" fill="#fdf3eb"/>
    <g id="Group_1216" data-name="Group 1216" transform="translate(96.184 -753.319)">
      <path id="Path_3196" data-name="Path 3196" d="M158.982,1439.955h-.192a.6.6,0,0,1-.266-.128c-.927-.7-1.859-1.395-2.788-2.093-.148-.111-.148-.111-.291,0-.941.7-1.888,1.4-2.827,2.109a.656.656,0,0,1-.258.115h-.22a.41.41,0,0,1-.323-.364,1.362,1.362,0,0,1-.022-.273q0-5.578,0-11.156a2.282,2.282,0,0,1,.449-1.5,1.957,1.957,0,0,1,1.586-.794q2.871,0,5.743,0h.027c.145,0,.158.019.08.142a2.178,2.178,0,0,0-.329,1.212q.01,6.011,0,12.021a1.716,1.716,0,0,1-.019.329A.4.4,0,0,1,158.982,1439.955Z" transform="translate(0 0)" fill="#fdf3eb"/>
      <path id="Path_3197" data-name="Path 3197" d="M228.857,1430.036q0,1.428,0,2.856c0,.379-.144.525-.518.525h-1.5a.413.413,0,0,1-.457-.447c0-1.913-.005-3.826,0-5.74a1.227,1.227,0,0,1,1.093-1.253,1.24,1.24,0,0,1,1.318.853,1.51,1.51,0,0,1,.06.474Q228.857,1428.67,228.857,1430.036Z" transform="translate(-66.261 -0.084)" fill="#fdf3eb"/>
    </g>
  </g>
</svg>
