<svg xmlns="http://www.w3.org/2000/svg" width="30.157" height="30.157" viewBox="0 0 30.157 30.157">
  <path id="Path_3140" data-name="Path 3140" d="M1210.335-172.122a1.336,1.336,0,0,0-.591-.31c-.97-.238-1.942-.469-2.912-.71a.554.554,0,0,1-.448-.4,8.244,8.244,0,0,0-.5-1.191.61.61,0,0,1,.039-.658q.654-1.064,1.286-2.141a1,1,0,0,0-.192-1.49q-1.089-1.093-2.182-2.182a1.044,1.044,0,0,0-1.544-.182c-.723.432-1.446.864-2.166,1.3a.52.52,0,0,1-.55.027,7.142,7.142,0,0,0-1.136-.477.7.7,0,0,1-.517-.6c-.228-.942-.444-1.888-.687-2.827a.946.946,0,0,0-.791-.8h-3.884a.941.941,0,0,0-.786.766c-.019.066-.035.133-.05.2-.213.927-.453,1.848-.674,2.772a.56.56,0,0,1-.405.453,8.3,8.3,0,0,0-1.3.544.58.58,0,0,1-.63-.025c-.737-.448-1.47-.9-2.213-1.342a1.08,1.08,0,0,0-1.578.191q-1.089,1.075-2.163,2.163a1.092,1.092,0,0,0-.18,1.514c.466.783.932,1.568,1.41,2.344a.583.583,0,0,1,.041.63,6.806,6.806,0,0,0-.413,1.005.526.526,0,0,1-.455.4c-.125.021-.248.059-.371.091-.835.219-1.679.4-2.514.614a.985.985,0,0,0-.866,1.108q0,1.677,0,3.353a.955.955,0,0,0,.741,1c.1.033.208.057.313.082.9.212,1.791.437,2.687.651a.6.6,0,0,1,.49.442,7.419,7.419,0,0,0,.507,1.22.523.523,0,0,1-.031.572c-.417.675-.824,1.358-1.229,2.041a1.063,1.063,0,0,0,.186,1.526q1.081,1.083,2.163,2.163a1.076,1.076,0,0,0,1.573.2c.666-.4,1.334-.788,1.99-1.2a.567.567,0,0,1,.627-.037,5.1,5.1,0,0,0,1.027.436.836.836,0,0,1,.651.726c.2.918.437,1.831.664,2.744a.936.936,0,0,0,.937.815c1.2.007,2.392,0,3.589,0a.908.908,0,0,0,.837-.544,1.618,1.618,0,0,0,.137-.418c.214-.927.455-1.847.674-2.772a.591.591,0,0,1,.437-.495,8.691,8.691,0,0,0,1.273-.533.524.524,0,0,1,.549.033c.7.431,1.41.852,2.118,1.273a1.079,1.079,0,0,0,1.513-.18q1.1-1.085,2.184-2.184a1.062,1.062,0,0,0,.177-1.551c-.422-.708-.842-1.415-1.273-2.117a.536.536,0,0,1-.028-.576,8.193,8.193,0,0,0,.487-1.166.579.579,0,0,1,.474-.416c.961-.237,1.925-.465,2.886-.7a.956.956,0,0,0,.823-.8v-3.883A.9.9,0,0,0,1210.335-172.122Zm-14.847,8.609a6.2,6.2,0,0,1-6.162-6.178,6.2,6.2,0,0,1,6.193-6.178,6.2,6.2,0,0,1,6.163,6.178A6.2,6.2,0,0,1,1195.488-163.513Z" transform="translate(-1180.411 184.755)" fill="#935d54"/>
</svg>
