<svg id="Group_1124" data-name="Group 1124" xmlns="http://www.w3.org/2000/svg" width="30.221" height="28.194" viewBox="0 0 30.221 28.194">
  <path id="Path_1595" data-name="Path 1595" d="M390.391,1475.74a13.922,13.922,0,0,0-4.058-8.605,1,1,0,0,0-1.427-.046,1.012,1.012,0,0,0-.012,1.45c.1.108.207.211.3.321a11.841,11.841,0,0,1,2.83,11.288,11.555,11.555,0,0,1-3.113,5.42,1.006,1.006,0,1,0,1.438,1.4,13.874,13.874,0,0,0,3.932-7.737,2.869,2.869,0,0,1,.166-.932v-.236c-.075-.013-.057-.066-.05-.115v-.117c0-.084-.037-.175.051-.24v-.649a.266.266,0,0,1,0-.354v-.295c-.068-.04-.084-.079,0-.118v-.295C390.368,1475.862,390.4,1475.793,390.391,1475.74Z" transform="translate(-360.23 -1462.966)" fill="#935d54"/>
  <path id="Path_1596" data-name="Path 1596" d="M408.486,1507.236v-.354A.451.451,0,0,0,408.486,1507.236Z" transform="translate(-378.265 -1493.256)" fill="#935d54"/>
  <path id="Path_1597" data-name="Path 1597" d="M408.467,1511.211v.019l.031,0v-.236C408.44,1511.058,408.478,1511.137,408.467,1511.211Z" transform="translate(-378.276 -1496.362)" fill="#935d54"/>
  <path id="Path_1598" data-name="Path 1598" d="M408.512,1505.308v-.118A.077.077,0,0,0,408.512,1505.308Z" transform="translate(-378.291 -1491.977)" fill="#935d54"/>
  <path id="Path_1599" data-name="Path 1599" d="M408.473,1511.974v.08c0,.008,0,.016,0,.023l.03,0v-.118C408.494,1511.974,408.484,1511.977,408.473,1511.974Z" transform="translate(-378.283 -1497.093)" fill="#935d54"/>
  <path id="Path_1600" data-name="Path 1600" d="M408.409,1511.969l-.021,0a.033.033,0,0,0,.021.012Z" transform="translate(-378.219 -1497.102)" fill="#935d54"/>
  <path id="Path_1601" data-name="Path 1601" d="M408.473,1512.458a.12.12,0,0,0,.03.1v-.118C408.494,1512.458,408.484,1512.461,408.473,1512.458Z" transform="translate(-378.282 -1497.459)" fill="#935d54"/>
  <path id="Path_1602" data-name="Path 1602" d="M408.414,1512.449h-.02a.032.032,0,0,0,.02.013S408.414,1512.454,408.414,1512.449Z" transform="translate(-378.223 -1497.464)" fill="#935d54"/>
  <path id="Path_1603" data-name="Path 1603" d="M302.929,1452.339c0-.108,0-.216,0-.324a.994.994,0,0,0-.689-.9,1.134,1.134,0,0,0-1.13.317q-4.7,3.771-9.411,7.536a.668.668,0,0,1-.453.158c-1.416-.005-2.832.026-4.247-.011a2.1,2.1,0,0,0-2.2,2.189c.036,2.575.01,5.152.011,7.727a2.014,2.014,0,0,0,2.17,2.167q2.138,0,4.277,0a.626.626,0,0,1,.427.147q3.356,2.694,6.72,5.378c.951.761,1.9,1.528,2.854,2.283a1.006,1.006,0,0,0,1.533-.234,1.308,1.308,0,0,0,.141-.711q0-6.445,0-12.89Q302.93,1458.754,302.929,1452.339Z" transform="translate(-284.797 -1451.063)" fill="#935d54"/>
  <path id="Path_1604" data-name="Path 1604" d="M376.706,1481.638a9.893,9.893,0,0,0-2-2.856,1.007,1.007,0,0,0-1.725.907,1.413,1.413,0,0,0,.43.654,7.857,7.857,0,0,1,2.12,6.608,7.767,7.767,0,0,1-2.241,4.565,1.007,1.007,0,1,0,1.44,1.4,9.761,9.761,0,0,0,2.9-6.95A10.555,10.555,0,0,0,376.706,1481.638Z" transform="translate(-351.435 -1471.764)" fill="#935d54"/>
</svg>
