<svg xmlns="http://www.w3.org/2000/svg" width="168.753" height="43.49" viewBox="0 0 168.753 43.49">
  <g id="Group_1212" data-name="Group 1212" transform="translate(-130 -333)">
    <rect id="Rectangle_117" data-name="Rectangle 117" width="168.753" height="43.49" rx="5" transform="translate(130 333)" fill="#e9a598"/>
    <path id="Path_3187" data-name="Path 3187" d="M10.418-12.908H6.287V-1.441H4.6V-12.908H.479v-1.386h9.94Zm4.74,11.643A4.173,4.173,0,0,1,12-2.54,4.734,4.734,0,0,1,10.78-5.952v-.3a5.731,5.731,0,0,1,.543-2.538,4.235,4.235,0,0,1,1.518-1.748,3.817,3.817,0,0,1,2.114-.631,3.577,3.577,0,0,1,2.9,1.227,5.312,5.312,0,0,1,1.033,3.513v.68h-6.47a3.4,3.4,0,0,0,.825,2.282,2.594,2.594,0,0,0,2.008.869,2.844,2.844,0,0,0,1.465-.353,3.682,3.682,0,0,0,1.05-.936l1,.777A4.011,4.011,0,0,1,15.158-1.265Zm-.2-8.562a2.178,2.178,0,0,0-1.66.719,3.5,3.5,0,0,0-.83,2.017H17.25v-.124a3.11,3.11,0,0,0-.671-1.929A2.051,2.051,0,0,0,14.955-9.827Zm9.022,2.322L26.1-10.992H28L24.877-6.27,28.1-1.441H26.21L24-5.016,21.8-1.441H19.9L23.121-6.27,20-10.992h1.889Zm7.971-5.8v2.313h1.783V-9.73H31.948V-3.8a1.326,1.326,0,0,0,.238.862A1,1,0,0,0,33-2.651a3.954,3.954,0,0,0,.777-.106V-1.44a4.762,4.762,0,0,1-1.253.175,2.034,2.034,0,0,1-1.651-.662,2.844,2.844,0,0,1-.556-1.88V-9.73H28.576v-1.262h1.739v-2.313ZM49.823-5.519a4.729,4.729,0,0,1-1.505,3.147A4.932,4.932,0,0,1,44.95-1.265,4.529,4.529,0,0,1,41.3-2.9a6.57,6.57,0,0,1-1.373-4.37V-8.5a7.323,7.323,0,0,1,.64-3.151,4.78,4.78,0,0,1,1.814-2.088A5.051,5.051,0,0,1,45.1-14.47a4.644,4.644,0,0,1,3.284,1.143,4.785,4.785,0,0,1,1.439,3.165h-1.7a3.693,3.693,0,0,0-.958-2.231,2.9,2.9,0,0,0-2.061-.691,3.032,3.032,0,0,0-2.547,1.2,5.516,5.516,0,0,0-.922,3.419v1.246a5.67,5.67,0,0,0,.874,3.331A2.824,2.824,0,0,0,44.95-2.651a3.261,3.261,0,0,0,2.167-.64,3.551,3.551,0,0,0,1-2.229Zm1.624-.786A5.641,5.641,0,0,1,52-8.83a4.116,4.116,0,0,1,1.536-1.73,4.181,4.181,0,0,1,2.247-.609,4.028,4.028,0,0,1,3.156,1.351,5.2,5.2,0,0,1,1.2,3.593v.115a5.691,5.691,0,0,1-.534,2.5,4.055,4.055,0,0,1-1.527,1.726,4.229,4.229,0,0,1-2.282.618,4.018,4.018,0,0,1-3.147-1.351,5.17,5.17,0,0,1-1.2-3.575Zm1.642.194a4.086,4.086,0,0,0,.737,2.551A2.359,2.359,0,0,0,55.8-2.6a2.345,2.345,0,0,0,1.977-.975,4.468,4.468,0,0,0,.733-2.732,4.079,4.079,0,0,0-.746-2.547,2.371,2.371,0,0,0-1.982-.975,2.345,2.345,0,0,0-1.951.962A4.435,4.435,0,0,0,53.089-6.111Zm10.875,4.67H62.331V-15h1.633Zm2.18-4.864A5.641,5.641,0,0,1,66.7-8.83a4.116,4.116,0,0,1,1.536-1.73,4.181,4.181,0,0,1,2.247-.609,4.028,4.028,0,0,1,3.156,1.351,5.2,5.2,0,0,1,1.2,3.593v.115a5.691,5.691,0,0,1-.534,2.5,4.055,4.055,0,0,1-1.527,1.726,4.229,4.229,0,0,1-2.282.618A4.018,4.018,0,0,1,67.35-2.615a5.17,5.17,0,0,1-1.2-3.575Zm1.642.194a4.086,4.086,0,0,0,.737,2.551A2.359,2.359,0,0,0,70.5-2.6a2.345,2.345,0,0,0,1.977-.975,4.468,4.468,0,0,0,.733-2.732,4.079,4.079,0,0,0-.746-2.547,2.371,2.371,0,0,0-1.982-.975,2.345,2.345,0,0,0-1.951.962A4.435,4.435,0,0,0,67.787-6.111ZM81.5-9.527a4.894,4.894,0,0,0-.8-.062,2.152,2.152,0,0,0-2.18,1.368v6.779H76.888v-9.551h1.589l.026,1.1a2.543,2.543,0,0,1,2.277-1.28,1.668,1.668,0,0,1,.724.124Z" transform="translate(183.009 362.877)" fill="#fdf3eb"/>
    <g id="Group_1210" data-name="Group 1210" transform="translate(3.041 1.041)">
      <g id="Group_1087" data-name="Group 1087" transform="translate(140.871 345.685)">
        <path id="Path_1605" data-name="Path 1605" d="M157.231,959.521a12.562,12.562,0,0,0,.185-1.729c.031-.475.035-.951.042-1.427a6.666,6.666,0,0,0,.038-.9,17.517,17.517,0,0,1-.027-2.414A1.225,1.225,0,0,1,158.8,951.8c.319,0,.638-.005.957,0,.106,0,.136-.034.137-.132,0-.235.013-.471.015-.706a3.119,3.119,0,0,0-.262-1.341,1.733,1.733,0,0,1-.1-1.076,1.881,1.881,0,1,1,3.683.767c-.054.259-.193.484-.257.737a5.714,5.714,0,0,0-.084,1.654c0,.089.05.1.122.1.324,0,.649,0,.973,0a1.471,1.471,0,0,1,.389.038,1.254,1.254,0,0,1,.943,1.283q0,1.059,0,2.119a1.367,1.367,0,0,1-.08.507.152.152,0,0,0-.012.134,1.54,1.54,0,0,1,.1.675,20.716,20.716,0,0,0,.19,2.8.683.683,0,0,0,.167.375.88.88,0,0,1-.167,1.306,3.332,3.332,0,0,1-.47.188h-.6c-.013-.03-.037-.031-.064-.027H164.2c-.026,0-.054-.014-.062.026h-.063c-.519-.022-1.036-.085-1.556-.076-.985.016-1.971-.039-2.956.03-.264.018-.53.006-.793.046h-.125c-.008-.04-.036-.03-.062-.026h-.188c-.027,0-.051,0-.064.027h-.314a.106.106,0,0,0-.157,0h-.063c-.015-.042-.051-.025-.079-.029a.882.882,0,0,1-.773-.575.861.861,0,0,1,.21-.952A.28.28,0,0,0,157.231,959.521Zm1.043.859c.424-.008.845-.053,1.267-.083.106-.007.137-.054.157-.145.126-.565.257-1.129.386-1.693a.325.325,0,0,1,.056-.13c.065.572.132,1.143.2,1.716.024.219.02.219.232.219.643,0,1.286,0,1.93,0a.154.154,0,0,0,.172-.113c.132-.334.274-.663.424-1.023a1.3,1.3,0,0,1,.019.355c0,.23,0,.46,0,.69,0,.057-.011.111.078.118a14.17,14.17,0,0,0,1.737.087c.035,0,.075,0,.1-.042a1.153,1.153,0,0,1-.357-.834,20.427,20.427,0,0,1-.207-3.063c0-.114-.025-.146-.145-.146q-2.926.007-5.852,0c-.112,0-.148.021-.149.142-.006.816-.036,1.631-.119,2.443a5.964,5.964,0,0,1-.152.943.754.754,0,0,1-.331.532A2.289,2.289,0,0,0,158.274,960.38Z" transform="translate(-149.966 -945.15)" fill="#fdf3eb"/>
        <path id="Path_1606" data-name="Path 1606" d="M194.135,1013.7h-.157A.17.17,0,0,1,194.135,1013.7Z" transform="translate(-186.088 -997.623)" fill="#fdf3eb"/>
        <path id="Path_1607" data-name="Path 1607" d="M163.769,1013.709h-.063c0-.006,0-.011,0-.016C163.728,1013.693,163.751,1013.689,163.769,1013.709Z" transform="translate(-149.288 -997.634)" fill="#fdf3eb"/>
        <path id="Path_1608" data-name="Path 1608" d="M164.056,1013.693h0s-.005.005,0,.008.007.009.01.009H164v-.016Z" transform="translate(-149.645 -997.634)" fill="#fdf3eb"/>
        <path id="Path_1609" data-name="Path 1609" d="M164,1013.655s0-.007.005-.011h0s0,.007,0,.011Z" transform="translate(-149.591 -997.596)" fill="#fdf3eb"/>
        <path id="Path_1610" data-name="Path 1610" d="M164.3,1013.693h.054s-.006.005,0,.008.007.009.01.009H164.3c0-.006,0-.011,0-.016Z" transform="translate(-150.003 -997.634)" fill="#fdf3eb"/>
        <path id="Path_1611" data-name="Path 1611" d="M164.3,1013.655h0s0-.007.005-.01h0v.01Z" transform="translate(-149.949 -997.596)" fill="#fdf3eb"/>
        <path id="Path_1612" data-name="Path 1612" d="M164.6,1013.693h.049s-.006.005,0,.008.007.009.01.009h-.063c0-.006,0-.011,0-.016Z" transform="translate(-150.362 -997.634)" fill="#fdf3eb"/>
        <path id="Path_1613" data-name="Path 1613" d="M164.594,1013.655s0-.007.005-.01v.01Z" transform="translate(-150.307 -997.596)" fill="#fdf3eb"/>
        <path id="Path_1614" data-name="Path 1614" d="M164.94,1013.7c0,.006.007.008.01.008h-.063a.066.066,0,0,1,.057-.016S164.938,1013.7,164.94,1013.7Z" transform="translate(-150.719 -997.634)" fill="#fdf3eb"/>
        <path id="Path_1615" data-name="Path 1615" d="M164.89,1013.656s0-.007.005-.01h0s0,.007,0,.01Z" transform="translate(-150.665 -997.597)" fill="#fdf3eb"/>
        <path id="Path_1616" data-name="Path 1616" d="M191.087,1013.709h-.063v-.016C191.047,1013.693,191.069,1013.69,191.087,1013.709Z" transform="translate(-182.412 -997.634)" fill="#fdf3eb"/>
        <path id="Path_1617" data-name="Path 1617" d="M191.374,1013.693h0s-.006,0,0,.007.007.009.01.009h-.063v-.016Z" transform="translate(-182.77 -997.634)" fill="#fdf3eb"/>
        <path id="Path_1618" data-name="Path 1618" d="M191.315,1013.657s0-.007.007-.01v.01Z" transform="translate(-182.709 -997.598)" fill="#fdf3eb"/>
        <path id="Path_1619" data-name="Path 1619" d="M191.618,1013.693h.054s-.006,0,0,.007.007.009.01.009h-.063c0-.006,0-.011,0-.016Z" transform="translate(-183.129 -997.634)" fill="#fdf3eb"/>
        <path id="Path_1620" data-name="Path 1620" d="M191.614,1013.655h0s0-.007.007-.01v.01Z" transform="translate(-183.068 -997.596)" fill="#fdf3eb"/>
        <path id="Path_1621" data-name="Path 1621" d="M191.918,1013.693h.049s-.006,0,0,.007.007.009.01.009h-.063c0-.006,0-.011,0-.016Z" transform="translate(-183.486 -997.634)" fill="#fdf3eb"/>
        <path id="Path_1622" data-name="Path 1622" d="M191.906,1013.655s0-.007.007-.01v.01Z" transform="translate(-183.425 -997.596)" fill="#fdf3eb"/>
        <path id="Path_1623" data-name="Path 1623" d="M192.257,1013.7c0,.006.007.01.01.01h-.063a.067.067,0,0,1,.057-.016S192.256,1013.7,192.257,1013.7Z" transform="translate(-183.844 -997.634)" fill="#fdf3eb"/>
        <path id="Path_1624" data-name="Path 1624" d="M192.2,1013.655s0-.007.007-.011,0,.007,0,.011Z" transform="translate(-183.782 -997.596)" fill="#fdf3eb"/>
        <path id="Path_1625" data-name="Path 1625" d="M187.471,949.143q1.791-5.428,3.571-10.859a.169.169,0,0,1,.2-.138q1.781.006,3.562,0a.168.168,0,0,1,.2.137q.7,2.133,1.406,4.263c.16.484.318.968.482,1.468h-.168c-.4,0-.8-.008-1.192.007a1.3,1.3,0,0,0-.937.439c-.036.041-.033.128-.1.122s-.089-.081-.106-.139c-.125-.448-.3-.88-.445-1.322-.238-.725-.484-1.448-.721-2.173a.22.22,0,0,0-.231-.185c-.14,0-.189.067-.229.184-.381,1.129-.738,2.266-1.12,3.4-.065.192-.06.2.151.2h2.384a.931.931,0,0,1,.188.007c.051.01.11.02.081.1a1.184,1.184,0,0,0-.254.709c-.01.544-.011,1.088-.005,1.632,0,.132-.037.163-.165.162-.962-.005-1.925,0-2.887-.006-.128,0-.178.033-.21.159-.153.618-.321,1.232-.476,1.849-.03.118-.078.15-.2.15q-1.326-.01-2.652,0C187.445,949.3,187.427,949.276,187.471,949.143Z" transform="translate(-187.45 -938.146)" fill="#fdf3eb"/>
      </g>
      <g id="Ellipse_21" data-name="Ellipse 21" transform="translate(135.959 340.959)" fill="none" stroke="#fdf3eb" stroke-width="1">
        <circle cx="13" cy="13" r="13" stroke="none"/>
        <circle cx="13" cy="13" r="12.5" fill="none"/>
      </g>
    </g>
  </g>
</svg>
