<svg xmlns="http://www.w3.org/2000/svg" width="30.165" height="26.574" viewBox="0 0 30.165 26.574">
  <g id="Group_1131" data-name="Group 1131" transform="translate(-1170.547 -1513.507)">
    <path id="Path_3162" data-name="Path 3162" d="M1188.677,1514.492a1.034,1.034,0,0,0-.583-.864,1.25,1.25,0,0,0-1.325.171q-4.781,3.22-9.567,6.433a1.049,1.049,0,0,1-.627.186c-1.532-.008-3.064.017-4.6-.014a1.322,1.322,0,0,0-1.434.848v11.077a1.315,1.315,0,0,0,1.432.85c1.521-.03,3.044,0,4.566-.014a1.134,1.134,0,0,1,.681.2q4.742,3.2,9.5,6.381a2.474,2.474,0,0,0,.433.246,1.094,1.094,0,0,0,1.459-.654,1.971,1.971,0,0,0,.08-.639q0-11.93,0-23.86A3.088,3.088,0,0,0,1188.677,1514.492Z" transform="translate(0 0)" fill="#935d54"/>
    <path id="Path_3163" data-name="Path 3163" d="M1446.1,1566.934a11.811,11.811,0,0,0-3.6-6.528c-.14-.13-.2-.111-.321.019-.381.423-.763.846-1.169,1.245-.19.187-.166.287.013.459a9.769,9.769,0,0,1,2.587,4.212,10,10,0,0,1,.114,5.6,9.9,9.9,0,0,1-2.769,4.667c-.142.136-.109.2.006.322.408.424.813.852,1.2,1.293.142.16.219.137.361,0a12.22,12.22,0,0,0,3.811-8.62A13.552,13.552,0,0,0,1446.1,1566.934Z" transform="translate(-245.63 -42.536)" fill="#935d54"/>
    <path id="Path_3164" data-name="Path 3164" d="M1400.9,1603.362c-.382.448-.775.887-1.173,1.321-.12.131-.143.206,0,.35a4.635,4.635,0,0,1-.013,6.641c-.128.126-.109.188-.006.3.409.45.817.9,1.213,1.364.114.133.173.117.29,0a6.865,6.865,0,0,0,2.178-4.9,6.956,6.956,0,0,0-2.159-5.095C1401.1,1603.21,1401.028,1603.218,1400.9,1603.362Z" transform="translate(-208.16 -81.546)" fill="#935d54"/>
  </g>
</svg>
