<svg xmlns="http://www.w3.org/2000/svg" width="26.723" height="17.257" viewBox="0 0 26.723 17.257">
  <g id="Group_6" data-name="Group 6" transform="translate(-492.888 62.983)">
    <path id="Path_32" data-name="Path 32" d="M622.591,536.638c-3.985,0-7.971-.018-11.956.011-1.172.009-1.642-1.355-1.275-2.4a1.217,1.217,0,0,1,1.04-.918.9.9,0,0,1,.094-.006q12.1,0,24.2,0c.648,0,1.091.473,1.228,1.236.206,1.155-.358,2.062-1.307,2.067-1.956.01-3.912,0-5.869,0Z" transform="translate(-116.349 -596.313)" fill="#935d54"/>
    <path id="Path_33" data-name="Path 33" d="M619.521,548.95q-4.508,0-9.017,0c-.907,0-1.437-.934-1.221-2.124.125-.689.517-1.136,1.034-1.178.085-.007.17-.007.256-.007h17.921a1.224,1.224,0,0,1,1.276,1.163c.225,1.186-.3,2.139-1.2,2.146-.939.008-1.877,0-2.816,0Z" transform="translate(-116.347 -601.652)" fill="#935d54"/>
    <path id="Path_34" data-name="Path 34" d="M617.152,561.259c-2.146,0-4.291.006-6.437,0A1.585,1.585,0,0,1,609.3,559.1a1.371,1.371,0,0,1,1.222-1.145c.079-.006.158-.007.237-.007,4.268,0,8.537.018,12.805-.011a1.652,1.652,0,0,1,1.408,2.316,1.327,1.327,0,0,1-1.347,1c-1.355.007-2.71,0-4.065,0Z" transform="translate(-116.344 -606.987)" fill="#935d54"/>
  </g>
</svg>
