<svg xmlns="http://www.w3.org/2000/svg" width="22.113" height="22.108" viewBox="0 0 22.113 22.108">
  <g id="Group_1069" data-name="Group 1069" transform="translate(-613.603 -814.245)">
    <path id="Path_1598" data-name="Path 1598" d="M621.856,814.245a2.431,2.431,0,0,1,.983.4,2.029,2.029,0,0,1,.82,1.7q.008,2.924,0,5.848a2,2,0,0,1-1.531,2.035,2.227,2.227,0,0,1-.618.07q-2.881,0-5.762,0a2.014,2.014,0,0,1-2.068-1.518,2.275,2.275,0,0,1-.072-.64c0-1.906.016-3.813-.006-5.719a2.053,2.053,0,0,1,1.783-2.153c.013,0,.024-.014.036-.022Z" fill="#935d54"/>
    <path id="Path_1599" data-name="Path 1599" d="M658.719,822.492a2.427,2.427,0,0,1-.4.983,2.03,2.03,0,0,1-1.7.82q-2.924.007-5.848,0a2.007,2.007,0,0,1-2.042-1.551,2.246,2.246,0,0,1-.065-.6q0-2.88,0-5.761a2.026,2.026,0,0,1,1.516-2.073c.1-.029.2,0,.289-.067h6.433a1.9,1.9,0,0,1,1.813,1.813Z" transform="translate(-23.003)" fill="#935d54"/>
    <path id="Path_1600" data-name="Path 1600" d="M618.638,859.34c-.979,0-1.957.007-2.936,0a2.03,2.03,0,0,1-2.082-2.061q0-2.957,0-5.914a2,2,0,0,1,1.559-2.012,2.149,2.149,0,0,1,.534-.06q2.925-.006,5.85,0a2,2,0,0,1,2.036,1.531,2.243,2.243,0,0,1,.07.618q0,2.882,0,5.763a2.014,2.014,0,0,1-1.521,2.067,2.2,2.2,0,0,1-.619.07Z" transform="translate(-0.009 -22.989)" fill="#935d54"/>
    <path id="Path_1601" data-name="Path 1601" d="M658.546,856.363c0,.2.01.4,0,.6-.009.147.028.2.185.192.4-.013.791-.006,1.186,0,.453,0,.637.188.639.642,0,.259,0,.518,0,.776a.527.527,0,0,1-.6.595c-.4,0-.791.015-1.186-.005-.2-.01-.233.06-.226.238.013.388.006.776,0,1.165a.532.532,0,0,1-.6.61q-.4.006-.8,0c-.416-.006-.605-.192-.61-.606s-.008-.82,0-1.229c0-.145-.043-.178-.18-.175-.4.009-.805,0-1.208,0-.431,0-.617-.188-.62-.615q0-.4,0-.8a.528.528,0,0,1,.594-.6c.4-.006.791-.015,1.186,0,.2.01.235-.06.228-.239-.013-.38-.006-.762,0-1.143,0-.44.191-.625.632-.627.266,0,.532,0,.8,0a.523.523,0,0,1,.583.586C658.549,855.946,658.546,856.154,658.546,856.363Z" transform="translate(-26.848 -26.835)" fill="#935d54"/>
  </g>
</svg>
