<svg xmlns="http://www.w3.org/2000/svg" width="22.18" height="22.229" viewBox="0 0 22.18 22.229">
  <g id="Group_1070" data-name="Group 1070" transform="translate(-704.948 -915.036)">
    <path id="Path_1602" data-name="Path 1602" d="M722.7,932.659a5.146,5.146,0,0,1-1.035-.106,6.47,6.47,0,0,1-4.382-3.024.227.227,0,0,0-.225-.123c-.29.007-.58,0-.87,0q-2.609,0-5.218,0a.669.669,0,0,1-.669-.388.649.649,0,0,1,.641-.914q2.717,0,5.435,0h.25a5.8,5.8,0,0,1-.239-1.114c-.015-.167-.074-.192-.223-.191q-2.587.008-5.175,0a.657.657,0,1,1,0-1.3h3.152c.689,0,1.377,0,2.066,0,.06,0,.156.047.167-.073a8.115,8.115,0,0,1,.249-1.227h-5.565c-.073,0-.145,0-.217,0a.664.664,0,0,1-.594-.571.655.655,0,0,1,.443-.692.921.921,0,0,1,.322-.036q3,0,6,0c.11,0,.2,0,.272-.117a6.481,6.481,0,0,1,5.11-3.128c.149-.014.361.056.432-.044s.012-.306.032-.462c.024-.183-.058-.2-.216-.2-.985.006-1.971,0-2.957,0a.667.667,0,0,1-.744-.751c0-.976-.007-1.953.005-2.929,0-.2-.052-.23-.237-.23q-5.142.009-10.283,0c-.554,0-.792.238-.792.79q0,8.647-.006,17.294c0,.209.067.237.251.237q5.805-.008,11.61,0a.67.67,0,0,1,.757.761c0,.608,0,1.215,0,1.823a1.3,1.3,0,0,0,.912,1.264c.045.016.106,0,.132.058h.479c.012-.032.041-.032.069-.038a1.277,1.277,0,0,0,1.015-1.243c.008-1.056,0-2.112.006-3.169C722.853,932.694,722.821,932.659,722.7,932.659ZM710.96,917.688q1.5,0,3,0h2.933a.656.656,0,1,1,.008,1.3h-5.932a.655.655,0,1,1-.008-1.3Zm.015,2.6h5.062a.654.654,0,1,1,0,1.3c-.854,0-1.709,0-2.564,0h-2.5a.656.656,0,1,1,0-1.3Zm5.077,11.719c-.855,0-1.709,0-2.564,0s-1.681,0-2.52,0a.654.654,0,1,1-.007-1.3q2.541,0,5.084,0a.653.653,0,1,1,.007,1.3Z" transform="translate(-0.941)" fill="#935d54"/>
    <path id="Path_1603" data-name="Path 1603" d="M718,945.5c.006-.159-.032-.2-.2-.2-1.839.006-3.678,0-5.517,0h-6.6a.66.66,0,0,0-.732.719c0,.2,0,.39,0,.585a1.3,1.3,0,0,0,.892,1.233c.051.018.12,0,.151.066h12.351a2.747,2.747,0,0,1-.349-1.432C718,946.149,717.986,945.823,718,945.5Z" transform="translate(0 -10.641)" fill="#935d54"/>
    <path id="Path_1604" data-name="Path 1604" d="M728.283,924.148a5.209,5.209,0,1,0,5.214,5.218A5.216,5.216,0,0,0,728.283,924.148Zm2.881,6a5.417,5.417,0,0,1-2.5,2.778.732.732,0,0,1-.76,0,5.317,5.317,0,0,1-2.851-4.176,7.3,7.3,0,0,1-.035-.836c0-.3-.007-.521,0-.746a.643.643,0,0,1,.805-.62,1.8,1.8,0,0,0,1.94-.639.642.642,0,0,1,1.035.008,1.8,1.8,0,0,0,1.943.628.626.626,0,0,1,.787.547A7.071,7.071,0,0,1,731.163,930.152Z" transform="translate(-6.369 -3.204)" fill="#935d54"/>
    <path id="Path_1605" data-name="Path 1605" d="M727.207,917.692q1.14,0,2.278,0c.108,0,.134-.025.114-.133a3.267,3.267,0,0,0-2.517-2.394c0,.809,0,1.609,0,2.41C727.08,917.678,727.12,917.693,727.207,917.692Z" transform="translate(-7.783 -0.046)" fill="#935d54"/>
    <path id="Path_1606" data-name="Path 1606" d="M731.772,929.616a2.838,2.838,0,0,1-1.585-.571.2.2,0,0,0-.279,0,2.951,2.951,0,0,1-1.672.579c-.106,0-.149.023-.149.143a4.051,4.051,0,0,0,1.779,3.475.273.273,0,0,0,.376-.011A4.048,4.048,0,0,0,732,929.964a.634.634,0,0,1,0-.086C732.029,929.7,731.985,929.625,731.772,929.616Z" transform="translate(-8.136 -4.905)" fill="#935d54"/>
  </g>
</svg>
