<svg xmlns="http://www.w3.org/2000/svg" width="22.007" height="22.001" viewBox="0 0 22.007 22.001">
  <g id="Group_1074" data-name="Group 1074" transform="translate(-439.018 -1120.426)">
    <path id="Path_1611" data-name="Path 1611" d="M450.12,1120.426a11,11,0,1,0,10.9,11A11.02,11.02,0,0,0,450.12,1120.426Zm2.133,19.934a8.849,8.849,0,0,1-7.94-1.683c-.131-.1-.152-.147-.023-.273.581-.566,1.148-1.147,1.727-1.715.1-.1.1-.14-.01-.227a5.5,5.5,0,0,1-1.033-1.026c-.081-.1-.122-.1-.211-.009-.575.583-1.158,1.158-1.732,1.741-.1.1-.147.111-.244-.012a9.611,9.611,0,0,1-2-6.218,9.269,9.269,0,0,1,14.979-6.736c.127.095.095.14,0,.229-.582.576-1.157,1.159-1.741,1.732-.1.1-.1.141.011.227a5.512,5.512,0,0,1,1.032,1.027c.079.1.121.1.21.009.574-.583,1.158-1.157,1.732-1.741.1-.1.148-.112.244.012a9.231,9.231,0,0,1-5,14.662Z" fill="#935d54"/>
    <path id="Path_1612" data-name="Path 1612" d="M485.731,1161.907a5.211,5.211,0,1,0,5.188,5.241A5.226,5.226,0,0,0,485.731,1161.907Zm-.441,7.358a.473.473,0,0,1-.645-.295c-.093-.372-.3-.459-.644-.417a4.327,4.327,0,0,1-.729,0c-.136-.006-.2.04-.231.171a1.21,1.21,0,0,1-.076.207.512.512,0,1,1-.963-.345c.15-.438.313-.871.471-1.306.222-.615.441-1.231.666-1.845a.7.7,0,0,1,.73-.494.6.6,0,0,1,.545.416q.6,1.634,1.18,3.277A.5.5,0,0,1,485.29,1169.265Zm3.664-.675a1.713,1.713,0,0,1-1.411.7q-.409.005-.818,0a.5.5,0,0,1-.539-.536c-.005-.552,0-1.1,0-1.657,0-.523,0-1.046,0-1.569,0-.4.181-.582.578-.585.265,0,.531,0,.8,0a1.723,1.723,0,0,1,1.644,1.063A2.417,2.417,0,0,1,488.953,1168.59Z" transform="translate(-35.685 -35.691)" fill="#935d54"/>
    <path id="Path_1613" data-name="Path 1613" d="M528.725,1190.944c-.106,0-.136.032-.134.137.006.338,0,.677,0,1.015s0,.676,0,1.015c0,.057-.033.125.078.145a.913.913,0,0,0,.992-.5,1.584,1.584,0,0,0,.131-.86A.926.926,0,0,0,528.725,1190.944Z" transform="translate(-77.071 -60.675)" fill="#935d54"/>
    <path id="Path_1614" data-name="Path 1614" d="M501.892,1196.735h.631l-.317-.876Z" transform="translate(-54.099 -64.905)" fill="#935d54"/>
  </g>
</svg>
