<svg xmlns="http://www.w3.org/2000/svg" width="22.629" height="22.63" viewBox="0 0 22.629 22.63">
  <g id="Group_1073" data-name="Group 1073" transform="translate(-735.897 -1030.179)">
    <path id="Path_1610" data-name="Path 1610" d="M746.818,1052.808c-.238-.108-.5-.142-.738-.258a2.643,2.643,0,0,1,.328-4.911.172.172,0,0,0,.147-.2q-.007-1.27,0-2.54c0-.107-.012-.163-.14-.194a3.12,3.12,0,0,1-1.42-.763c-.09-.085-.151-.073-.244-.011q-1.713,1.148-3.432,2.287a.213.213,0,0,0-.1.255,1.984,1.984,0,1,1-2.295-1.631,1.908,1.908,0,0,1,1.393.275.2.2,0,0,0,.268.006q1.71-1.152,3.431-2.288c.111-.074.114-.132.075-.249a3.234,3.234,0,0,1,.282-2.779.173.173,0,0,0-.036-.257q-1.021-1.009-2.03-2.031c-.1-.1-.163-.093-.275-.021a3.975,3.975,0,1,1,1.744-4.123,3.881,3.881,0,0,1-.557,2.933.19.19,0,0,0,.036.291q1.006.993,2,2a.2.2,0,0,0,.292.044,3.2,3.2,0,0,1,2.738-.279.211.211,0,0,0,.3-.1q1.118-1.693,2.251-3.377a.222.222,0,0,0,.009-.287,1.964,1.964,0,0,1,.148-2.323,1.986,1.986,0,1,1,1.208,3.224.226.226,0,0,0-.267.118q-1.125,1.7-2.263,3.394c-.072.107-.088.174.011.28a3.074,3.074,0,0,1,.744,1.382c.03.121.067.166.2.165q1.27-.01,2.54,0a.174.174,0,0,0,.2-.147,2.643,2.643,0,0,1,5.135.4c0,.018.023.032.035.048v.751a2.524,2.524,0,0,1-1.8,2.165,2.674,2.674,0,0,1-3.369-1.571.368.368,0,0,0-.408-.272c-.729.01-1.458.009-2.187,0a.291.291,0,0,0-.328.244,3.32,3.32,0,0,1-2.3,2.278.241.241,0,0,0-.2.265q.005,1.16,0,2.32c0,.172.082.243.23.3a2.722,2.722,0,0,1,1.759,2.7,2.763,2.763,0,0,1-1.839,2.4c-.169.054-.348.037-.517.086Z" transform="translate(0)" fill="#935d54"/>
  </g>
</svg>
